<svg width="1439" height="494" viewBox="0 0 1439 494" fill="none" xmlns="http://www.w3.org/2000/svg">
<path d="M1357.08 232.783H1302.8V48.0419H1220.88V0.170898H1439V48.0419H1357.08V232.783Z" fill="white"/>
<path d="M1260.13 232.783H1068.98V0.170898H1256.42V47.3676H1121.57V90.1818H1237.88V136.704H1121.57V185.249H1260.13V232.783Z" fill="white"/>
<path d="M897.808 232.783H848.252V0.170898H914.664L1003.66 153.56V0.170898H1053.89V232.783H994.899L897.808 65.5721V232.783Z" fill="white"/>
<path d="M785.776 138.39L840.052 232.783H778.36L730.489 141.424H693.405V232.783H640.141V0.170898H760.829C807.352 0.170898 838.367 27.4776 838.367 70.6289C838.367 105.015 817.465 130.299 785.776 138.39ZM692.394 46.6934V96.587H757.121C774.988 96.587 784.765 86.8106 784.765 71.6402C784.765 56.1327 774.314 46.6934 757.121 46.6934H692.394Z" fill="white"/>
<path d="M632.244 232.783H441.098V0.170898H628.536V47.3676H493.688V90.1818H609.994V136.704H493.688V185.249H632.244V232.783Z" fill="white"/>
<path d="M385.63 232.783H331.354V48.0419H249.434V0.170898H467.55V48.0419H385.63V232.783Z" fill="white"/>
<path d="M119.762 232.783H70.2051V0.170898H136.618L225.617 153.56V0.170898H275.848V232.783H216.852L119.762 65.5721V232.783Z" fill="white"/>
<path d="M54.2762 232.783H0V0.170898H54.2762V232.783Z" fill="white"/>
<path d="M1120.28 488.666H1066V256.054H1120.28V346.739H1223.44V256.054H1277.71V488.666H1223.44V394.273H1120.28V488.666Z" fill="white"/>
<path d="M953.676 493.723C885.915 493.723 831.639 444.841 831.639 372.697C831.639 301.228 885.915 250.997 953.676 250.997C1014.69 250.997 1061.89 289.429 1072.68 347.413H1017.39C1008.96 318.084 985.702 299.879 953.676 299.879C915.581 299.879 886.589 328.872 886.589 372.36C886.589 415.174 915.918 444.841 953.676 444.841C984.017 444.841 1007.28 428.659 1016.72 400.341H1072C1060.54 456.977 1013.68 493.723 953.676 493.723Z" fill="white"/>
<path d="M679.916 488.666H630.359V256.054H696.772L785.771 409.443V256.054H836.002V488.666H777.006L679.916 321.455V488.666Z" fill="white"/>
<path d="M511.648 493.723C447.933 493.723 407.479 457.651 407.479 393.936V256.054H461.755V390.227C461.755 420.231 477.599 444.504 511.311 444.504C545.023 444.504 560.868 420.231 560.868 390.227V256.054H615.144V393.936C615.144 457.651 575.364 493.723 511.648 493.723Z" fill="white"/>
<path d="M355.929 394.273L410.205 488.666H348.512L300.641 397.307H263.558V488.666H210.293V256.054H330.982C377.504 256.054 408.519 283.361 408.519 326.512C408.519 360.898 387.618 386.182 355.929 394.273ZM262.546 302.576V352.47H327.273C345.141 352.47 354.917 342.694 354.917 327.523C354.917 312.016 344.466 302.576 327.273 302.576H262.546Z" fill="white"/>
<path d="M166.777 368.652C187.678 377.08 203.86 397.307 203.86 423.939C203.86 466.079 170.148 488.666 121.94 488.666H0.914062V256.054H119.917C168.125 256.054 196.78 277.967 196.78 317.747C196.78 341.682 184.981 360.224 166.777 368.652ZM115.535 301.902H53.1676V350.447H115.535C133.065 350.447 142.841 340.334 142.841 325.838C142.841 311.004 132.391 301.902 115.535 301.902ZM53.1676 442.144H122.614C140.481 442.144 149.921 432.367 149.921 417.871C149.921 402.701 139.47 393.262 122.614 393.262H53.1676V442.144Z" fill="white"/>
</svg>
