<svg width="1440" height="272" viewBox="0 0 1440 272" fill="none" xmlns="http://www.w3.org/2000/svg">
<path d="M227.119 198.335C227.119 249.693 184.71 286.718 118.906 286.718C53.1029 286.718 7.12918 252.076 0 195.549H62.6282C72.1416 222.224 95.1344 231.376 119.709 231.376C144.283 231.376 161.729 221.026 161.729 203.504C161.729 185.981 147.057 178.026 109.015 171.257L87.2144 167.273C44.3921 159.318 5.94885 135.429 5.94885 87.2486C5.94885 39.0677 49.1488 0.0629883 112.969 0.0629883C176.789 0.0629883 214.041 33.8987 223.554 88.0547H161.717C153.785 64.9602 136.351 54.219 112.568 54.219C88.7843 54.219 70.5482 65.7663 70.5482 82.8857C70.5482 100.005 86.8013 106.372 118.115 112.75L139.916 117.124C187.082 126.68 227.119 147.783 227.119 198.347V198.335ZM1126.47 113.141H1005.18V6.03817H941.359V280.743H1005.18V169.265H1126.47V280.743H1190.29V6.03817H1126.47V113.129V113.141ZM1440 89.6552C1440 141.416 1402.74 176.45 1348.44 176.45H1269.56V280.754H1206.93V6.03817H1348.44C1403.93 6.03817 1440 38.6883 1440 89.6433V89.6552ZM1376.18 90.8526C1376.18 72.9389 1364.29 61.3916 1343.67 61.3916H1268.37V120.717H1343.67C1364.68 120.717 1376.18 108.778 1376.18 90.8526ZM930.275 198.347C930.275 249.705 887.866 286.73 822.063 286.73C763.92 286.73 720.814 259.355 706.957 213.557C683.705 258.94 637.141 286.73 580.686 286.73C505.877 286.73 445.043 235.822 437.902 159.069C422.569 170.202 402.669 176.45 379.723 176.45H300.842V280.754H238.214V6.03817H379.723C421.814 6.03817 452.727 24.8292 465.203 56.1396C491.264 21.1777 533.142 0.0629883 580.674 0.0629883C639.313 0.0629883 687.092 30.3894 709.519 78.8667C714.098 33.3415 755.941 0.0629883 816.114 0.0629883C876.287 0.0629883 917.186 33.8987 926.699 88.0547H864.862C856.93 64.9602 839.496 54.219 815.713 54.219C791.929 54.219 773.693 65.7663 773.693 82.8857C773.693 100.005 789.946 106.372 821.26 112.75L843.061 117.124C890.227 126.68 930.264 147.783 930.264 198.347H930.275ZM407.473 90.8526C407.473 72.9389 395.587 61.3916 374.967 61.3916H299.662V120.717H374.967C395.976 120.717 407.473 108.778 407.473 90.8526ZM864.873 203.528C864.873 186.005 850.202 178.05 812.16 171.281L790.359 167.297C756.342 160.966 725.075 144.582 713.673 113.947H655.601C645.687 79.3053 618.338 57.8113 580.686 57.8113C535.892 57.8113 501.805 92.05 501.805 143.408C501.805 194.766 536.294 229.005 580.686 229.005C613.971 229.005 639.997 212.36 652.355 182.97H761.288L765.785 195.561C775.298 222.236 798.291 231.388 822.866 231.388C847.44 231.388 864.885 221.038 864.885 203.516L864.873 203.528Z" fill="white"/>
</svg>
