<svg width="1519" height="296" viewBox="0 0 1519 296" fill="none" xmlns="http://www.w3.org/2000/svg">
<path d="M1519 295.809H1293.93V0H1362.95V235.361H1519V295.809Z" fill="#0A0085"/>
<path d="M1306.59 295.809H1235.43L1214.85 237.505H1089.67L1069.09 295.809H998.781L1108.96 0H1195.99L1306.59 295.809ZM1151.83 60.0193L1108.96 181.773H1195.13L1151.83 60.0193Z" fill="#0A0085"/>
<path d="M1030.13 295.809H787.053V0H1025.42V60.0193H853.931V114.465H1001.84V173.627H853.931V235.361H1030.13V295.809Z" fill="#0A0085"/>
<path d="M502.762 295.809H259.684V0H498.046V60.0193H326.562V114.465H474.467V173.627H326.562V235.361H502.762V295.809Z" fill="#0A0085"/>
<path d="M185.202 175.771L254.225 295.809H175.771L114.894 179.629H67.7361V295.809H0V0H153.478C212.64 0 252.081 34.7255 252.081 89.6002C252.081 133.329 225.501 165.482 185.202 175.771ZM66.4499 59.1619V122.611H148.762C171.484 122.611 183.916 110.178 183.916 90.8864C183.916 71.1657 170.626 59.1619 148.762 59.1619H66.4499Z" fill="#0A0085"/>
<path d="M583.405 234.281L709.164 0H785.679L628.271 295.809H514.264V0H583.405V234.281Z" fill="#0A0085"/>
</svg>
