<?xml version="1.0" standalone="no"?>
<!DOCTYPE svg PUBLIC "-//W3C//DTD SVG 20010904//EN"
 "http://www.w3.org/TR/2001/REC-SVG-20010904/DTD/svg10.dtd">
<svg version="1.0" xmlns="http://www.w3.org/2000/svg"
 width="1024.000000pt" height="429.000000pt" viewBox="0 0 1024.000000 429.000000"
 preserveAspectRatio="xMidYMid meet">

<g transform="translate(0.000000,429.000000) scale(0.100000,-0.100000)"
fill="#000000" stroke="none">
<path d="M0 3654 l0 -635 57 3 58 3 0 178 c0 97 3 177 7 177 5 0 8 -81 8 -180
0 -173 1 -180 20 -180 20 0 20 8 23 563 l2 562 3 -562 2 -563 367 0 c201 0
364 -2 361 -5 -2 -3 -167 -5 -366 -5 -318 0 -362 -2 -362 -16 0 -13 20 -15
131 -13 71 0 133 -2 136 -5 4 -3 -66 -6 -155 -6 -144 0 -161 -2 -165 -17 -4
-17 -5 -17 -6 0 -1 14 -11 17 -61 17 l-60 0 0 -381 0 -382 88 6 c48 4 216 7
375 7 l287 0 2 88 1 87 6 -82 c3 -45 8 -84 11 -86 3 -3 93 -8 200 -12 107 -4
197 -9 199 -11 4 -4 -164 -8 -322 -9 -31 0 -57 -4 -57 -8 0 -5 -4 -5 -10 -2
-5 3 -10 -1 -10 -10 0 -9 4 -14 9 -11 10 6 24 -21 17 -33 -3 -4 4 -7 15 -7 10
0 19 4 19 8 0 4 7 8 15 8 18 0 20 -27 2 -33 -6 -2 33 -5 88 -6 102 -1 217 -10
224 -17 2 -2 -42 -4 -99 -4 -57 0 -101 -3 -97 -6 3 -4 38 -6 77 -6 39 0 68 -4
64 -9 -3 -5 -32 -9 -65 -9 -42 0 -65 -5 -76 -16 -13 -12 -13 -15 -2 -14 8 1
28 2 44 1 29 -1 31 -3 27 -36 -4 -32 -7 -35 -36 -36 -26 0 -28 -2 -11 -9 11
-5 15 -9 8 -9 -6 -1 -15 -10 -18 -21 -4 -11 -10 -18 -14 -16 -4 3 -21 1 -37
-4 -21 -6 3 -9 86 -10 63 -1 125 -1 137 0 13 1 23 -3 23 -8 0 -6 -50 -10 -117
-11 -88 -1 -120 -5 -125 -15 -5 -8 -17 -12 -28 -9 -13 3 -20 0 -20 -8 0 -11
-2 -11 -10 1 -6 10 -10 11 -10 3 0 -7 -8 -13 -17 -13 -15 0 -16 -2 -3 -10 8
-5 89 -10 180 -11 163 -2 164 -2 65 -10 -55 -4 -148 -10 -207 -14 l-108 -7 -1
-36 c0 -21 -1 -54 -3 -74 -2 -29 1 -38 13 -39 9 0 34 -2 56 -4 22 -1 101 -4
175 -6 l135 -3 -190 -6 -190 -5 -3 -115 c-2 -63 -5 -116 -7 -119 -3 -2 -5 50
-5 116 l0 120 -150 -1 -150 -1 0 -107 0 -108 147 0 c80 0 144 -3 141 -6 -3 -3
-171 -5 -372 -5 l-366 1 0 -121 c0 -112 1 -121 20 -126 11 -3 20 -10 20 -15 0
-5 6 -8 13 -7 50 6 307 -3 307 -11 0 -6 -61 -10 -164 -10 -136 0 -165 3 -170
15 -3 8 -10 15 -16 15 -6 0 -10 -43 -10 -117 l0 -118 59 -52 c40 -36 69 -53
88 -54 17 -1 21 -3 10 -6 -9 -2 -17 -6 -17 -8 0 -1 39 -40 86 -86 78 -76 90
-84 120 -81 31 3 34 0 34 -23 0 -28 -17 -32 -53 -14 -12 7 -68 56 -124 110
-56 55 -107 99 -113 99 -6 0 60 -69 147 -154 87 -85 155 -157 151 -161 -4 -4
-82 65 -174 154 -118 113 -175 161 -191 161 l-23 0 0 -317 0 -317 53 -56 52
-55 -52 50 -53 49 0 -57 0 -57 4781 0 4781 0 338 336 339 336 1 205 0 204
-322 -320 c-177 -176 -326 -317 -331 -314 -5 3 139 153 322 333 182 179 331
333 331 341 0 7 -84 -69 -187 -171 -401 -395 -463 -454 -469 -447 -4 4 142
154 324 333 183 179 332 333 332 341 0 25 -66 7 -140 -37 -36 -21 -83 -43
-105 -49 -48 -13 -365 -15 -365 -2 0 5 80 11 178 13 191 4 188 3 307 73 35 20
74 35 93 35 31 0 32 1 32 45 l0 45 -37 1 c-21 0 -56 4 -78 8 -35 8 -31 9 38
10 69 1 77 3 77 20 0 26 -23 27 -694 29 -308 1 -562 4 -564 7 -3 3 85 5 196 5
l202 0 0 109 0 110 -200 1 -200 1 3 -66 c1 -36 -1 -65 -5 -65 -4 0 -8 29 -8
65 l0 65 -207 0 c-138 0 -203 4 -193 10 8 5 100 10 208 10 l192 0 0 79 0 78
-42 0 c-224 0 -410 4 -404 10 4 4 41 8 84 9 156 5 212 9 212 16 0 3 -8 9 -17
11 -16 4 -16 5 1 6 10 0 25 -7 32 -17 12 -15 13 -15 8 0 -4 12 1 18 23 21 25
4 25 4 -7 6 -27 1 -31 4 -20 11 10 6 -39 10 -147 10 -97 0 -164 4 -168 10 -4
7 61 11 187 12 106 1 173 3 148 5 -25 3 -49 11 -53 19 -4 8 -17 14 -27 14 -10
0 -22 5 -25 10 -3 5 -26 10 -51 10 l-44 0 0 40 0 40 40 0 c22 0 40 4 40 9 0 5
8 12 17 14 10 3 -33 5 -96 6 -63 0 -112 4 -109 7 3 3 50 7 104 10 54 3 100 7
103 9 2 3 -47 5 -109 5 -62 0 -110 3 -107 7 10 9 37 11 165 12 78 1 111 4 107
12 -4 6 -14 8 -23 4 -12 -5 -12 -1 3 15 18 20 20 20 26 3 6 -13 8 -14 8 -3 1
13 2 13 11 0 5 -8 10 -10 10 -4 0 13 -28 39 -50 47 -8 3 1 6 21 6 19 1 41 -5
48 -11 11 -11 12 -10 6 1 -6 11 -3 13 12 9 12 -3 27 -2 34 3 9 5 -15 9 -61 10
-41 0 -102 2 -135 4 -33 2 -96 4 -140 6 l-80 2 85 8 c47 4 153 9 235 11 l150
3 6 115 5 115 2 -117 c2 -109 3 -118 21 -118 11 0 23 5 26 10 4 6 12 7 18 3 7
-4 83 -8 169 -9 l157 -2 4 72 3 71 2 -72 2 -73 223 0 c122 0 313 -3 425 -7
l202 -6 0 316 c0 307 -1 316 -20 322 -26 8 -26 45 0 52 15 4 20 14 20 39 l0
34 -347 3 -348 2 348 3 c270 1 347 5 347 15 0 9 -115 13 -532 15 -292 1 -534
5 -537 7 -2 3 237 5 532 5 l537 0 0 426 c0 421 0 426 -20 421 -22 -6 -26 9
-10 33 9 13 11 13 20 0 6 -10 10 51 10 188 l0 202 -301 0 -301 0 47 -52 c25
-28 58 -68 72 -88 25 -34 88 -87 123 -102 13 -6 13 -7 0 -7 -29 -1 -110 70
-182 158 l-73 90 -2276 0 -2276 1 4 -24 c6 -28 -27 -66 -56 -66 -28 0 -51 27
-51 61 l0 29 -2419 0 -2420 0 -4 -47 -3 -48 -2 48 -2 47 -60 0 -60 0 0 -636z
m10133 619 c-34 -2 -93 -2 -130 0 -37 2 -9 3 62 3 72 0 102 -1 68 -3z m-5151
-78 c30 -20 50 -19 82 6 14 11 26 16 26 10 0 -17 -43 -41 -73 -41 -18 0 -39
11 -59 30 l-30 30 -1024 0 c-790 0 -1024 -3 -1024 -12 0 -9 -3 -9 -12 0 -9 9
-248 13 -1002 14 -626 2 -860 4 -636 8 195 3 1109 6 2030 8 1315 2 1676 5
1679 15 3 6 8 -2 13 -20 5 -18 18 -39 30 -48z m3963 43 c42 -6 -1869 -13
-2837 -10 -731 1 -1018 5 -1018 13 0 8 528 10 1918 5 1054 -3 1926 -7 1937 -8z
m910 2 c7 -11 -9 -11 -45 0 -24 8 -24 8 7 9 17 1 35 -3 38 -9z m163 -7 c-16
-2 -40 -2 -55 0 -16 2 -3 4 27 4 30 0 43 -2 28 -4z m178 -46 c-33 -41 -113
-113 -143 -130 -8 -5 24 28 71 74 47 45 86 88 86 96 0 8 5 11 10 8 6 -4 -4
-24 -24 -48z m-10069 -354 c-1 -65 -3 -14 -3 112 0 127 2 180 3 118 2 -62 2
-165 0 -230z m310 285 c-3 -7 -5 -2 -5 12 0 14 2 19 5 13 2 -7 2 -19 0 -25z
m0 -215 c-2 -38 -3 -7 -3 67 0 74 1 105 3 68 2 -38 2 -98 0 -135z m2609 99
c212 -46 377 -144 596 -351 l88 -83 -22 -32 c-13 -17 -90 -112 -173 -211 -82
-99 -181 -220 -219 -268 -38 -48 -73 -87 -77 -87 -5 0 -33 38 -64 84 -66 101
-134 164 -223 208 l-67 33 -332 3 c-361 4 -413 -1 -482 -46 -72 -47 -74 -53
-87 -442 -12 -353 -20 -370 -22 -43 -1 191 2 331 9 362 14 67 57 123 116 152
l48 24 380 0 380 0 78 -39 c87 -43 161 -115 222 -215 20 -34 38 -61 40 -61 3
0 59 69 127 153 67 83 168 207 225 275 57 68 103 127 103 132 0 12 -125 131
-205 195 -186 149 -402 225 -705 247 -180 13 -593 3 -716 -17 -459 -75 -775
-386 -824 -810 l-9 -80 4 85 c5 90 37 213 79 305 88 193 297 387 506 471 175
71 294 83 770 79 319 -3 376 -6 456 -23z m2642 -376 c-2 -189 -6 -348 -10
-352 -5 -4 -181 -9 -393 -12 l-385 -5 0 -91 c-1 -50 -3 -202 -6 -338 l-5 -248
402 0 401 0 -6 -237 c-4 -131 -8 -281 -9 -333 l-2 -95 -390 -5 -390 -5 -3
-423 -2 -422 406 0 407 0 -7 -342 c-4 -189 -10 -346 -12 -350 -6 -9 -1179 -8
-1419 1 l-170 6 6 115 5 115 2 -112 2 -113 638 -1 c868 -1 901 -1 914 7 7 4 8
3 4 -4 -4 -7 -2 -12 4 -12 5 0 9 14 8 30 l-2 30 -758 0 -758 0 0 69 c0 47 4
72 14 80 9 8 16 8 20 2 4 -5 2 -13 -4 -16 -8 -5 -7 -12 2 -23 11 -13 11 -14 0
-8 -10 6 -12 1 -10 -21 2 -18 10 -30 23 -34 24 -7 1318 -8 1388 -2 l47 5 0
253 0 254 -22 -5 c-13 -3 -29 -6 -36 -6 -8 -1 -4 -10 10 -23 13 -12 25 -20 28
-18 3 3 -3 10 -13 18 -15 11 -16 13 -2 19 18 6 30 -16 21 -39 -7 -20 -18 -19
-43 4 -16 15 -23 17 -33 8 -10 -9 -11 -9 -6 0 5 9 -4 12 -33 10 -40 -2 -47
-13 -22 -33 19 -15 22 -41 4 -41 -7 0 -12 6 -9 13 3 8 0 11 -10 7 -8 -3 -14 1
-14 8 0 9 -3 10 -8 4 -4 -5 -16 -17 -27 -25 -18 -14 -19 -14 -7 1 10 14 10 20
-3 32 -9 10 -11 18 -5 22 6 3 13 -1 16 -10 5 -12 9 -13 20 -4 8 6 14 17 14 23
0 6 -4 4 -10 -4 -5 -8 -12 -11 -16 -7 -4 3 -2 13 5 20 9 11 7 17 -6 28 -16 12
-17 12 -6 -2 7 -9 10 -19 6 -22 -9 -9 -25 -9 -20 1 3 4 -1 13 -8 19 -11 10
-13 9 -12 -7 1 -11 6 -20 12 -20 5 0 3 -6 -5 -13 -8 -7 -23 -26 -32 -42 -9
-16 -21 -30 -27 -31 -7 -2 -8 -1 -1 3 5 2 8 9 4 14 -3 5 0 9 6 9 6 0 8 5 5 10
-4 6 -15 8 -26 5 -15 -5 -12 1 11 27 16 18 30 37 30 43 0 5 -5 2 -11 -8 -8
-14 -14 -15 -32 -7 -20 10 -20 10 -5 -3 17 -13 17 -16 -5 -38 -18 -20 -32 -24
-77 -24 -38 0 -54 -4 -53 -12 2 -7 -3 -10 -11 -7 -23 9 18 44 43 37 28 -7 50
13 44 38 -8 30 -19 31 -18 1 0 -24 -4 -27 -37 -28 -21 -1 -38 4 -38 10 0 6 -7
0 -16 -12 -8 -12 -13 -26 -9 -31 3 -5 0 -13 -6 -16 -5 -4 -8 -13 -6 -19 3 -7
-1 -13 -8 -13 -8 0 -11 7 -7 15 4 11 2 13 -9 7 -12 -8 -12 -6 0 8 7 9 18 14
24 10 6 -3 7 -1 3 6 -4 6 -12 8 -18 5 -6 -4 -16 0 -22 8 -6 8 -18 17 -26 21
-12 4 -11 6 3 6 24 1 12 21 -13 21 -14 0 -18 -6 -15 -25 3 -32 -9 -40 -26 -18
-8 9 -9 14 -3 10 8 -4 11 1 10 17 0 14 -6 22 -13 19 -7 -3 -10 -9 -7 -14 3 -5
0 -9 -6 -9 -7 0 -9 7 -6 16 4 11 1 14 -12 12 -9 -2 -17 -11 -17 -20 0 -9 -3
-19 -6 -23 -8 -8 -4 26 5 47 6 14 12 15 27 7 13 -7 25 -6 40 2 12 6 19 7 16 2
-3 -5 4 -9 15 -8 12 1 23 6 26 13 2 7 -19 10 -60 10 -35 0 -90 0 -122 1 l-59
1 6 387 c4 214 7 423 7 466 l0 77 398 0 397 0 -3 305 -3 305 -394 0 -395 0 0
373 0 372 395 -3 395 -2 0 325 0 325 -770 0 -770 0 0 -208 c0 -297 -12 -812
-19 -812 -3 0 -8 239 -10 530 l-3 530 806 0 807 0 -3 -344z m354 -65 c-1 -225
-6 -541 -11 -702 -7 -258 -8 -208 -9 399 -1 381 -4 697 -7 702 -3 6 2 10 12
10 17 0 18 -20 15 -409z m140 302 c47 -60 116 -148 154 -198 37 -49 101 -130
141 -179 40 -49 92 -116 116 -149 l42 -60 3 49 c1 27 4 64 8 82 4 28 7 30 19
19 10 -11 13 -38 10 -113 -2 -54 -5 -723 -6 -1486 l-2 -1388 -289 0 -288 0 0
67 c0 36 3 63 7 60 3 -4 5 -27 5 -52 -2 -46 11 -58 36 -33 7 7 12 8 12 1 0 -7
74 -9 228 -8 125 2 233 3 240 4 9 1 12 93 12 424 0 232 -4 417 -8 411 -5 -7
-14 -7 -29 1 -13 7 -20 15 -16 18 3 4 4 7 1 7 -3 0 -12 -8 -19 -17 -12 -14
-12 -16 0 -8 11 6 13 4 7 -11 -6 -15 -5 -17 5 -6 7 6 18 12 24 12 13 -1 -34
-40 -47 -40 -6 0 -8 7 -4 15 7 19 -1 19 -20 1 -16 -17 -19 -30 -4 -21 6 4 22
-1 37 -10 14 -9 23 -13 20 -8 -10 15 9 34 26 27 9 -3 14 -10 11 -15 -3 -5 -10
-7 -15 -4 -5 4 -9 1 -9 -4 0 -6 6 -11 13 -12 9 0 9 -2 -1 -6 -11 -4 -11 -7 0
-17 7 -6 11 -10 9 -9 -2 2 -10 -2 -18 -9 -11 -9 -12 -7 -6 8 6 16 4 17 -9 6
-12 -10 -18 -9 -28 3 -9 10 -9 15 -1 15 6 0 11 -5 11 -11 0 -5 5 -7 11 -3 8 4
8 9 0 17 -15 15 -50 16 -45 2 3 -6 -8 -18 -23 -25 -15 -8 -32 -16 -37 -19 -5
-2 -6 1 -2 7 3 5 0 13 -6 16 -7 3 0 4 15 1 25 -5 27 -4 18 13 -6 12 -21 19
-38 20 -46 0 -47 1 -28 22 10 11 13 20 7 20 -7 0 -12 -6 -13 -12 0 -10 -2 -10
-6 -1 -3 10 -8 9 -19 -2 -14 -14 -44 -11 -44 5 0 13 15 20 44 22 14 1 23 4 21
7 -3 2 1 11 7 20 8 10 5 9 -9 -3 -14 -11 -29 -16 -40 -12 -15 6 -15 9 -3 16 8
5 12 11 9 15 -3 3 -14 -5 -25 -17 -10 -12 -13 -18 -5 -13 9 5 12 3 9 -6 -3 -8
-10 -15 -16 -15 -7 -1 -17 -2 -24 -3 -6 0 -3 -7 8 -15 18 -14 17 -15 -11 -12
-16 2 -34 4 -38 5 -5 0 -6 11 -2 24 6 21 6 21 -15 -3 -12 -14 -20 -20 -17 -15
3 6 -9 10 -28 11 -29 1 -31 -1 -19 -13 18 -19 18 -33 -1 -33 -8 0 -15 -7 -15
-15 0 -8 6 -15 13 -15 18 0 38 36 30 57 -5 16 -4 16 9 -1 10 -13 17 -15 22 -8
9 16 36 3 29 -14 -3 -8 0 -14 7 -14 6 0 9 4 6 9 -3 5 5 9 19 9 13 0 26 -7 30
-16 4 -12 3 -13 -9 -3 -12 10 -18 9 -32 -8 -10 -11 -21 -18 -25 -16 -4 3 -9
-2 -13 -10 -7 -20 9 -28 34 -15 11 5 29 14 40 20 12 6 21 6 25 0 4 -6 1 -9 -7
-8 -7 2 -12 -2 -11 -8 1 -7 -8 -9 -25 -6 -24 5 -25 3 -14 -10 9 -11 10 -18 2
-23 -6 -4 -10 -3 -9 2 3 20 -3 23 -23 12 -13 -6 -20 -8 -15 -4 4 5 -1 17 -10
28 -10 11 -12 17 -5 13 6 -4 12 -2 12 3 0 6 -11 11 -25 11 -19 0 -23 -4 -19
-18 5 -13 4 -14 -4 -3 -5 7 -14 11 -20 7 -12 -7 -26 29 -17 44 10 16 -21 23
-44 10 -20 -10 -21 -9 -22 77 -2 69 -4 55 -10 -67 -4 -85 -9 -182 -11 -215 -2
-33 -4 605 -6 1417 -1 812 -5 1484 -8 1492 -4 10 -1 16 8 16 8 0 53 -48 100
-107z m1453 -1450 c0 -854 -3 -1549 -6 -1545 -3 4 -66 90 -141 192 -74 102
-217 298 -318 435 -101 138 -213 291 -249 342 -36 50 -68 92 -71 92 -3 1 -6
-56 -6 -127 -1 -70 -5 -421 -9 -779 l-7 -653 -406 0 c-223 0 -403 2 -400 5 3
3 182 6 397 5 l391 0 -1 322 c0 178 -4 789 -8 1358 -5 569 -6 1037 -4 1040 3
3 8 -2 13 -10 10 -18 268 -362 425 -565 63 -82 168 -220 233 -305 l117 -155 2
940 c2 517 5 946 8 953 3 8 13 12 22 10 17 -3 18 -84 18 -1555z m839 950 c-4
-335 -8 -610 -10 -612 -2 -2 -4 264 -4 591 l0 596 -362 -5 c-200 -3 -364 -6
-365 -8 -2 -1 -3 -345 -3 -766 0 -420 -3 -825 -8 -899 l-7 -135 -8 95 c-4 52
-10 467 -13 923 l-5 827 396 0 396 0 -7 -607z m-5597 586 c281 -31 504 -140
703 -343 41 -43 52 -60 45 -70 -6 -8 -57 -72 -115 -143 -58 -70 -138 -170
-179 -220 -66 -83 -101 -112 -101 -84 0 5 -36 48 -81 95 -61 64 -98 94 -149
120 -105 52 -166 58 -533 54 l-322 -3 -55 -26 c-77 -36 -123 -79 -151 -141
l-24 -53 0 -940 c0 -1065 -5 -998 81 -1094 43 -48 71 -63 144 -76 32 -6 30 -4
-16 18 -28 14 -60 36 -71 50 -11 15 -24 23 -28 19 -5 -4 -5 -1 -1 6 4 6 3 12
-2 12 -12 0 -42 62 -42 87 0 11 7 3 18 -19 23 -50 84 -114 132 -138 37 -19 59
-20 429 -20 363 0 390 1 394 18 4 13 5 11 6 -5 0 -13 -5 -24 -11 -24 -7 -1
-184 -5 -393 -8 l-380 -7 360 -2 c198 -1 390 -5 428 -8 l67 -7 0 412 0 411
-245 0 -245 0 -1 223 c0 122 -2 249 -2 282 l-2 60 578 3 577 2 0 -767 c0 -423
-4 -774 -9 -781 -4 -7 -31 -24 -59 -37 -32 -15 -92 -63 -165 -133 -150 -144
-254 -202 -418 -236 -88 -17 -746 -29 -900 -16 -119 10 -271 49 -366 95 -268
126 -440 363 -482 660 -6 41 -11 461 -12 1025 -1 1045 -3 1004 58 1177 43 119
87 187 188 288 179 179 391 269 670 284 217 12 575 12 682 0z m7202 8 c-2 -1
-13 -9 -24 -17 -19 -14 -19 -14 -6 3 7 9 18 17 24 17 6 0 8 -1 6 -3z m-359
-17 c0 -5 -4 -10 -10 -10 -5 0 -10 5 -10 10 0 6 5 10 10 10 6 0 10 -4 10 -10z
m230 1 c-36 -3 -72 -10 -80 -14 -8 -5 -6 -1 4 7 14 11 38 16 80 14 l61 -1 -65
-6z m-177 -8 c-7 -2 -19 -2 -25 0 -7 3 -2 5 12 5 14 0 19 -2 13 -5z m15 -74
c-59 -52 -68 -65 -68 -95 0 -19 4 -34 9 -34 5 0 26 19 47 43 22 24 32 34 24
22 -30 -41 -64 -75 -77 -75 -9 0 -13 14 -12 43 1 39 5 46 66 100 36 31 68 57
72 57 3 0 -24 -28 -61 -61z m-4188 -249 l0 -280 -397 -2 -398 -3 -3 -412 -3
-413 401 0 400 0 0 -265 0 -265 -393 0 -394 0 -6 -491 c-6 -379 -4 -495 5
-508 10 -13 10 -14 -2 -4 -9 9 -17 9 -26 2 -8 -7 -12 -6 -11 3 2 46 -4 88 -13
88 -5 0 -10 -8 -10 -17 0 -14 -4 -12 -25 7 -17 16 -22 27 -15 35 5 7 6 16 2
20 -4 5 -2 5 5 1 6 -3 14 -2 18 4 4 6 -5 10 -20 10 -14 0 -24 -4 -21 -9 4 -5
-2 -8 -11 -7 -30 5 -21 31 10 31 38 1 67 -20 62 -45 -2 -11 0 -20 6 -20 5 0 9
16 9 35 0 31 -3 35 -25 35 -17 0 -25 6 -25 17 0 15 -2 14 -16 -3 -14 -18 -15
-18 -4 4 7 15 7 22 0 22 -5 0 -10 -7 -10 -15 0 -8 -7 -15 -16 -15 -8 0 -13 4
-10 9 4 5 3 16 0 25 -5 13 -9 14 -20 5 -8 -7 -18 -9 -21 -5 -4 4 -1 11 6 15
18 12 -2 23 -25 14 -12 -4 -15 -3 -10 6 5 8 18 10 34 6 23 -6 24 -4 12 10 -7
9 -27 25 -44 36 l-31 21 30 -27 c24 -21 26 -26 10 -23 -14 2 -20 -3 -20 -17 0
-11 -4 -26 -9 -34 -7 -11 -5 -11 9 -4 13 8 23 5 38 -10 16 -16 21 -17 29 -6 6
10 7 6 2 -11 -4 -14 -7 -30 -7 -37 0 -8 -6 -9 -17 -3 -10 5 -20 6 -24 2 -4 -3
-4 1 0 11 3 9 10 17 16 17 5 0 6 -6 2 -12 -5 -10 -3 -9 7 0 12 11 11 15 -6 25
-28 16 -37 16 -59 -2 -11 -9 -16 -10 -12 -3 4 7 1 12 -8 12 -13 0 -12 4 4 20
11 11 20 26 19 33 0 10 -2 10 -6 0 -2 -7 -11 -13 -19 -13 -9 0 -12 -5 -8 -12
4 -7 3 -8 -5 -4 -6 4 -9 11 -6 16 3 4 -2 13 -10 20 -8 7 -12 17 -8 23 3 6 1 7
-6 3 -9 -6 -9 -11 -1 -21 8 -9 6 -14 -5 -19 -21 -8 -31 20 -14 41 13 15 12 15
-8 3 -11 -8 -19 -20 -16 -27 3 -8 -2 -13 -13 -13 -16 0 -17 -2 -4 -10 8 -5 10
-10 5 -10 -17 0 -35 22 -35 44 0 30 -7 15 -14 -28 -5 -28 -2 -42 9 -50 13 -9
11 -11 -10 -11 -14 0 -23 5 -21 11 2 6 -5 16 -15 23 -11 6 -17 17 -13 23 5 7
-1 9 -20 4 -21 -5 -26 -3 -26 13 0 11 -5 23 -11 27 -8 4 -9 -1 -4 -17 7 -21 6
-22 -7 -11 -13 10 -17 10 -22 -4 -5 -12 -13 -14 -34 -9 -26 6 -26 6 -7 -8 11
-9 23 -13 27 -11 4 2 9 0 12 -5 11 -16 -11 -22 -24 -6 -33 40 -38 19 -39 -182
-1 -119 -5 -199 -11 -201 -6 -2 -10 -8 -10 -13 0 -6 5 -7 10 -4 6 3 10 -1 10
-10 0 -10 -5 -13 -12 -9 -10 6 -10 4 -2 -7 12 -16 12 -78 0 -97 -4 -7 -3 -19
4 -27 9 -10 9 -19 0 -35 -6 -12 -13 -20 -15 -18 -1 1 -6 747 -9 1656 l-8 1652
726 0 726 0 0 -280z m2810 -1450 l0 -1730 -299 0 -299 0 -4 -25 -5 -26 333 3
c184 2 334 0 334 -5 0 -4 -150 -6 -334 -5 l-335 3 -7 1758 -7 1757 312 0 311
0 0 -1730z m-8283 1433 c-3 -10 -5 -4 -5 12 0 17 2 24 5 18 2 -7 2 -21 0 -30z
m0 -175 c-2 -18 -4 -6 -4 27 0 33 2 48 4 33 2 -15 2 -42 0 -60z m6633 -525 c0
-108 -2 -194 -4 -192 -10 11 -16 389 -6 389 6 0 10 -69 10 -197z m2627 175
c-3 -8 -6 -5 -6 6 -1 11 2 17 5 13 3 -3 4 -12 1 -19z m-9222 -184 c0 -21 -32
-31 -47 -16 -6 6 -8 23 -4 37 6 25 8 26 29 12 12 -8 22 -23 22 -33z m3922 -91
c-2 -21 -4 -4 -4 37 0 41 2 58 4 38 2 -21 2 -55 0 -75z m20 -215 c-1 -46 -3
-9 -3 82 0 91 2 128 3 83 2 -46 2 -120 0 -165z m-20 120 c-2 -13 -4 -5 -4 17
-1 22 1 32 4 23 2 -10 2 -28 0 -40z m-3801 -49 c50 -48 62 -97 39 -150 -54
-118 -209 -120 -266 -3 -19 41 -20 50 -9 87 33 110 156 144 236 66z m9607 15
c37 -28 60 -71 60 -115 0 -108 -125 -176 -214 -116 -121 81 -61 266 82 254 25
-2 58 -12 72 -23z m-6127 -496 c-4 -167 -9 -314 -11 -328 -2 -14 -4 -101 -4
-194 -1 -93 -3 -167 -5 -165 -6 7 -15 383 -16 674 l0 280 -619 3 -618 3 -7
-23 c-3 -13 -6 -81 -7 -153 l-2 -130 -8 160 c-4 88 -5 163 -2 168 2 4 297 7
655 7 l651 0 -7 -302z m2271 110 c-2 -29 -3 -8 -3 47 0 55 1 79 3 53 2 -26 2
-71 0 -100z m3350 100 c-3 -8 -6 -5 -6 6 -1 11 2 17 5 13 3 -3 4 -12 1 -19z
m-8571 -224 c1 -9 0 -13 -4 -10 -3 4 -7 14 -8 22 -1 9 0 13 4 10 3 -4 7 -14 8
-22z m79 -34 c-3 -5 -11 -10 -16 -10 -6 0 -7 5 -4 10 3 6 11 10 16 10 6 0 7
-4 4 -10z m7875 0 c0 -5 -2 -10 -4 -10 -3 0 -8 5 -11 10 -3 6 -1 10 4 10 6 0
11 -4 11 -10z m-1053 -32 c-3 -7 -5 -2 -5 12 0 14 2 19 5 13 2 -7 2 -19 0 -25z
m-5240 -25 c-3 -10 -5 -2 -5 17 0 19 2 27 5 18 2 -10 2 -26 0 -35z m0 -225
c-2 -13 -4 -3 -4 22 0 25 2 35 4 23 2 -13 2 -33 0 -45z m6316 55 c-7 -2 -19
-2 -25 0 -7 3 -2 5 12 5 14 0 19 -2 13 -5z m-1618 -498 c87 -121 232 -319 322
-439 90 -120 156 -213 147 -205 -29 24 -588 781 -735 996 -77 113 -57 97 29
-23 44 -60 150 -208 237 -329z m-4206 342 c-2 -30 -2 -30 -6 -4 l-4 27 -245 0
c-134 0 -244 3 -244 8 0 4 112 6 250 4 l250 -3 -1 -32z m-1879 19 c-7 -7 -13
-7 -20 0 -6 6 -3 10 10 10 13 0 16 -4 10 -10z m3017 -458 c-1 -57 -3 -11 -3
102 0 113 2 159 3 103 2 -57 2 -149 0 -205z m-3437 212 c-6 -11 -12 -20 -14
-20 -2 0 -2 9 1 20 3 11 9 20 15 20 5 0 4 -9 -2 -20z m8030 -135 c0 -2 -7 -5
-15 -9 -9 -3 -15 0 -15 9 0 9 6 12 15 9 8 -4 15 -7 15 -9z m-7897 -2 c-7 -2
-19 -2 -25 0 -7 3 -2 5 12 5 14 0 19 -2 13 -5z m65 0 c-10 -2 -26 -2 -35 0
-10 3 -2 5 17 5 19 0 27 -2 18 -5z m8070 0 c-21 -2 -57 -2 -80 0 -24 2 -7 4
37 4 44 0 63 -2 43 -4z m449 -45 c-3 -8 -6 -5 -6 6 -1 11 2 17 5 13 3 -3 4
-12 1 -19z m-3011 -81 c8 3 14 1 14 -5 0 -14 -33 -8 -36 7 -1 6 0 7 2 2 3 -6
12 -7 20 -4z m-218 -22 c-3 -3 -9 2 -12 12 -6 14 -5 15 5 6 7 -7 10 -15 7 -18z
m282 10 c5 3 10 4 10 0 0 -3 -10 -10 -22 -14 l-23 -9 25 -10 c25 -11 25 -11 2
-11 -15 -1 -21 -5 -16 -13 4 -7 3 -8 -4 -4 -6 4 -9 13 -5 22 3 8 2 14 -3 13
-27 -5 -33 2 -16 19 11 13 21 16 29 10 7 -6 17 -7 23 -3z m-311 -16 c-16 -10
-23 -4 -14 10 3 6 11 8 17 5 6 -4 5 -9 -3 -15z m-1654 -8 c3 -5 1 -12 -5 -16
-5 -3 -10 1 -10 9 0 18 6 21 15 7z m1855 5 c0 -3 -4 -8 -10 -11 -5 -3 -10 -1
-10 4 0 6 5 11 10 11 6 0 10 -2 10 -4z m-1820 -28 c0 -12 -3 -18 -7 -14 -11
10 -12 36 -2 36 5 0 9 -10 9 -22z m-75 -6 c-3 -3 -11 0 -18 7 -9 10 -8 11 6 5
10 -3 15 -9 12 -12z m2081 9 c-4 -5 -3 -11 1 -14 5 -2 2 -2 -4 -1 -7 2 -13 -2
-13 -8 0 -6 -3 -8 -6 -5 -4 4 -1 13 6 22 14 16 25 21 16 6z m-2291 -23 c6 -4
2 -8 -7 -8 -10 0 -18 7 -18 17 0 9 3 12 8 7 4 -5 12 -12 17 -16z m115 -36 c0
-2 -8 2 -17 9 -33 26 -42 37 -36 42 5 5 53 -40 53 -51z m1782 28 c3 -16 2 -34
-2 -40 -4 -6 -7 7 -8 30 -2 47 4 53 10 10z m-1637 7 c11 -11 10 -16 -6 -26
-11 -6 -17 -17 -13 -24 5 -8 2 -8 -7 1 -12 11 -11 15 4 23 14 8 16 14 6 25
-15 18 -2 19 16 1z m1992 -2 c0 -6 -6 -12 -12 -12 -6 0 -12 6 -12 12 0 6 6 12
12 12 6 0 12 -6 12 -12z m110 0 c0 -17 -13 -20 -21 -6 -4 5 0 12 6 14 7 3 13
6 14 6 0 1 1 -6 1 -14z m-6058 -5 c5 0 20 -12 35 -26 20 -21 26 -37 26 -71 0
-61 -32 -93 -94 -93 -37 0 -48 5 -70 31 -36 43 -36 96 2 131 28 27 57 38 80
32 8 -2 17 -4 21 -4z m3912 -13 c-10 -9 -11 -8 -5 6 3 10 9 15 12 12 3 -3 0
-11 -7 -18z m1791 16 c-6 -3 -9 -10 -5 -16 4 -7 -2 -5 -12 3 -17 14 -18 13
-12 -5 7 -18 6 -19 -6 -3 -8 10 -18 14 -22 10 -5 -4 -6 -2 -3 3 4 6 21 11 40
11 18 1 27 -1 20 -3z m-1942 -28 c14 -18 14 -19 -2 -7 -10 8 -23 10 -30 6 -9
-6 -9 -3 1 9 8 10 14 16 15 15 1 -2 8 -12 16 -23z m245 7 c-3 -3 -11 0 -18 7
-9 10 -8 11 6 5 10 -3 15 -9 12 -12z m1990 -2 c-8 -9 -12 -20 -8 -24 4 -4 -4
-3 -19 3 -14 5 -29 8 -32 5 -3 -2 -4 -1 0 3 3 4 15 8 27 8 12 0 21 5 20 11 -1
6 5 11 13 11 12 0 12 -3 -1 -17z m3026 7 c73 -56 37 -177 -54 -177 -97 0 -135
130 -52 178 26 15 86 15 106 -1z m-5444 -224 c-1 -43 -3 -8 -3 77 0 85 2 120
3 78 2 -43 2 -113 0 -155z m108 217 c3 -5 1 -10 -4 -10 -6 0 -11 5 -11 10 0 6
2 10 4 10 3 0 8 -4 11 -10z m362 -12 c-3 -8 -6 -5 -6 6 -1 11 2 17 5 13 3 -3
4 -12 1 -19z m1837 -20 c-5 -7 -9 -16 -10 -20 -1 -5 -2 -11 -3 -14 0 -3 -6 -2
-12 1 -7 5 -4 14 8 27 13 15 15 22 6 25 -7 3 -13 10 -13 16 0 6 7 4 16 -5 10
-10 13 -21 8 -30z m-1984 10 c0 -5 -9 -4 -20 2 -11 6 -20 12 -20 14 0 2 9 2
20 -1 11 -3 20 -9 20 -15z m131 -5 c13 -16 12 -17 -3 -4 -10 7 -18 15 -18 17
0 8 8 3 21 -13z m1680 -7 c-6 -7 -7 -17 -3 -21 4 -5 1 -5 -6 -1 -9 6 -10 11
-3 20 6 7 7 17 3 21 -4 5 -1 5 6 1 9 -6 10 -11 3 -20z m144 3 c-4 -5 -12 -9
-18 -8 -9 0 -8 2 1 6 6 2 9 10 6 15 -4 7 -2 8 5 4 6 -4 9 -12 6 -17z m-2150
-18 c-6 -5 -25 10 -25 20 0 5 6 4 14 -3 8 -7 12 -15 11 -17z m407 1 c11 -15
11 -15 -3 -5 -8 7 -26 9 -39 6 -13 -4 -21 -2 -17 3 10 16 45 14 59 -4z m1853
9 c3 -5 2 -12 -3 -15 -5 -3 -9 1 -9 9 0 17 3 19 12 6z m-2072 -16 c-3 -9 -8
-14 -10 -11 -3 3 -2 9 2 15 9 16 15 13 8 -4z m105 -10 c-3 -3 -9 2 -12 12 -6
14 -5 15 5 6 7 -7 10 -15 7 -18z m-768 -145 c0 -117 -3 -150 -13 -150 -7 0
-37 -7 -67 -16 -46 -14 -70 -32 -181 -140 -117 -112 -138 -128 -231 -173 -190
-92 -200 -94 -692 -99 -368 -3 -443 -1 -529 13 -262 44 -489 170 -630 350 -17
22 7 1 53 -46 144 -148 297 -230 530 -286 87 -20 791 -31 943 -13 242 27 394
103 562 278 89 93 161 142 211 142 19 0 22 8 27 68 4 37 7 102 7 145 0 42 2
77 5 77 3 0 5 -67 5 -150z m469 124 c-6 -8 -17 -14 -23 -14 -6 0 -3 5 7 11 9
6 14 15 11 21 -4 7 -2 8 5 4 9 -6 9 -11 0 -22z m251 11 c0 -2 -6 -5 -13 -8 -8
-3 -14 1 -14 8 0 7 6 11 14 8 7 -3 13 -6 13 -8z m181 -32 c13 -16 12 -17 -3
-4 -17 13 -22 21 -14 21 2 0 10 -8 17 -17z m64 -25 c5 4 5 1 1 -6 -6 -9 -11
-10 -20 -3 -7 6 -17 7 -21 3 -5 -4 -5 -1 -1 6 6 9 11 10 20 3 7 -6 17 -7 21
-3z m159 -29 c-2 -4 2 -10 8 -12 8 -4 9 -6 2 -6 -6 -1 -17 5 -23 12 -8 10 -7
14 4 14 8 0 12 -4 9 -8z m57 -12 c-6 -8 -7 -18 -3 -22 4 -5 1 -5 -6 -1 -10 6
-10 11 -1 22 6 8 14 14 16 14 3 0 0 -6 -6 -13z m-81 -1 c0 -2 -7 -7 -16 -10
-8 -3 -12 -2 -9 4 6 10 25 14 25 6z m-79 -33 c13 -16 12 -17 -3 -4 -17 13 -22
21 -14 21 2 0 10 -8 17 -17z m751 -1 c9 -9 8 -12 -4 -12 -8 0 -21 6 -27 14
-10 11 -9 14 4 12 8 -1 21 -8 27 -14z m-631 -15 c-10 -9 -11 -8 -5 6 3 10 9
15 12 12 3 -3 0 -11 -7 -18z m689 6 c0 -3 -7 -3 -15 1 -9 3 -15 0 -15 -9 0 -8
-7 -15 -15 -15 -13 0 -12 3 2 19 14 17 43 19 43 4z m-590 3 c0 -3 -4 -8 -10
-11 -5 -3 -10 -1 -10 4 0 6 5 11 10 11 6 0 10 -2 10 -4z m170 -6 c0 -5 -5 -10
-11 -10 -5 0 -7 5 -4 10 3 6 8 10 11 10 2 0 4 -4 4 -10z m222 -46 c-8 -15 -9
-15 -15 0 -4 10 -3 15 3 11 6 -3 10 2 11 12 0 10 3 13 5 6 3 -7 1 -20 -4 -29z
m-342 6 c-6 -11 -13 -20 -16 -20 -2 0 0 9 6 20 6 11 13 20 16 20 2 0 0 -9 -6
-20z m204 11 c3 -5 -6 -11 -19 -14 -14 -2 -28 0 -32 6 -3 5 -1 7 5 3 6 -3 13
-2 17 4 8 12 22 13 29 1z m214 -22 c-3 -8 -7 -3 -11 10 -4 17 -3 21 5 13 5 -5
8 -16 6 -23z m-172 -1 c0 -10 -1 -18 -3 -18 -1 0 -7 8 -12 18 -7 13 -6 19 2
19 7 0 13 -9 13 -19z m255 15 c-19 -4 -21 -7 -10 -15 11 -8 11 -9 -2 -5 -9 3
-22 0 -28 -6 -15 -15 -14 0 2 18 6 8 23 14 37 13 l25 -1 -24 -4z m59 -3 c0 -5
-2 -10 -4 -10 -3 0 -8 5 -11 10 -3 6 -1 10 4 10 6 0 11 -4 11 -10z m-440 -10
c0 -5 -5 -10 -11 -10 -5 0 -7 5 -4 10 3 6 8 10 11 10 2 0 4 -4 4 -10z m280 0
c0 -5 -5 -10 -11 -10 -5 0 -7 5 -4 10 3 6 8 10 11 10 2 0 4 -4 4 -10z m-235
-18 c-3 -3 -11 0 -18 7 -9 10 -8 11 6 5 10 -3 15 -9 12 -12z m359 -13 c-9 -10
-22 -19 -28 -19 -6 0 0 7 12 16 12 8 19 20 16 26 -5 7 -2 8 5 4 9 -6 8 -13 -5
-27z m-1467 -151 c-2 -13 -4 -5 -4 17 -1 22 1 32 4 23 2 -10 2 -28 0 -40z
m-3868 -201 c35 -31 36 -35 23 -55 -8 -12 -19 -22 -24 -22 -6 0 -4 10 5 23 13
20 13 24 -9 40 -12 9 -26 17 -29 17 -3 0 -43 -31 -87 -70 -45 -38 -86 -70 -92
-69 -6 0 2 10 19 22 16 12 42 34 58 50 16 15 31 27 35 27 3 0 18 12 33 26 20
19 27 35 25 53 -2 14 -1 18 1 9 2 -9 21 -32 42 -51z m-124 38 c0 -10 -6 -20
-12 -22 -8 -3 -13 5 -13 22 0 17 5 25 13 23 6 -3 12 -13 12 -23z m5922 -117
c-3 -7 -5 -2 -5 12 0 14 2 19 5 13 2 -7 2 -19 0 -25z m-5817 -21 c0 -1 -23
-25 -52 -52 l-52 -50 44 51 c38 44 60 63 60 51z m9 -74 c-6 -10 -23 -27 -37
-37 -21 -15 -20 -12 7 17 38 41 47 46 30 20z m-119 -36 c0 -2 -12 -14 -27 -28
l-28 -24 24 28 c23 25 31 32 31 24z m206 -24 c-7 -7 -26 7 -26 19 0 6 6 6 15
-2 9 -7 13 -15 11 -17z m-174 -33 c-30 -29 -40 -25 -12 5 13 14 26 23 28 20 3
-3 -4 -14 -16 -25z m103 0 c3 -5 1 -10 -4 -10 -6 0 -11 5 -11 10 0 6 2 10 4
10 3 0 8 -4 11 -10z m4828 -104 l22 -23 1085 -7 c597 -4 1087 -9 1089 -12 2
-2 -487 -4 -1087 -4 -828 0 -1092 -3 -1092 -12 0 -14 -30 -48 -42 -48 -4 0 1
9 12 20 54 54 -12 126 -81 90 -24 -13 -26 -72 -3 -94 9 -9 11 -16 4 -16 -6 0
-19 13 -28 30 l-17 30 -420 2 c-231 1 -368 4 -305 8 63 3 252 6 420 8 l305 3
25 24 c33 33 83 34 113 1z m-47 -21 c4 -8 10 -12 15 -9 5 3 9 -6 9 -20 0 -25
-20 -38 -20 -13 -1 8 -5 7 -13 -4 -16 -21 -37 -13 -37 15 0 37 35 61 46 31z
m-2238 -22 c-10 -2 -26 -2 -35 0 -10 3 -2 5 17 5 19 0 27 -2 18 -5z m450 0
c-10 -2 -28 -2 -40 0 -13 2 -5 4 17 4 22 1 32 -1 23 -4z m640 0 c-115 -2 -301
-2 -415 0 -115 1 -21 2 207 2 228 0 322 -1 208 -2z"/>
<path d="M5098 980 c-10 -11 -13 -22 -8 -25 6 -4 10 -1 10 5 0 6 5 8 10 5 15
-9 30 4 23 20 -7 20 -15 19 -35 -5z"/>
<path d="M5168 984 c12 -8 20 -20 17 -25 -4 -5 -2 -9 4 -9 5 0 13 5 16 10 3 6
1 10 -4 10 -6 0 -11 5 -11 11 0 16 20 0 30 -25 l9 -21 0 22 c1 26 -9 33 -51
39 -31 3 -31 3 -10 -12z"/>
<path d="M5280 990 c0 -5 5 -10 11 -10 5 0 7 5 4 10 -3 6 -8 10 -11 10 -2 0
-4 -4 -4 -10z"/>
<path d="M5495 980 c-3 -5 -1 -10 4 -10 6 0 11 5 11 10 0 6 -2 10 -4 10 -3 0
-8 -4 -11 -10z"/>
<path d="M5147 966 c-4 -10 -1 -13 9 -9 15 6 19 23 5 23 -5 0 -11 -7 -14 -14z"/>
<path d="M5120 942 c0 -7 -7 -9 -17 -5 -15 5 -16 3 -5 -8 9 -10 15 -10 24 -1
6 6 9 15 5 19 -4 3 -7 1 -7 -5z"/>
<path d="M5355 930 c-3 -5 -1 -10 4 -10 6 0 11 5 11 10 0 6 -2 10 -4 10 -3 0
-8 -4 -11 -10z"/>
<path d="M5255 920 c-8 -13 5 -13 25 0 13 8 13 10 -2 10 -9 0 -20 -4 -23 -10z"/>
<path d="M6621 1404 c0 -11 3 -14 6 -6 3 7 2 16 -1 19 -3 4 -6 -2 -5 -13z"/>
<path d="M6622 1355 c0 -16 2 -22 5 -12 2 9 2 23 0 30 -3 6 -5 -1 -5 -18z"/>
<path d="M6174 1362 c3 -6 2 -13 -4 -17 -15 -9 -12 -42 4 -42 7 0 19 10 26 21
10 17 10 19 -1 9 -20 -19 -31 -15 -19 6 7 14 7 22 -2 27 -6 4 -8 3 -4 -4z"/>
<path d="M6436 1345 c3 -8 11 -15 16 -15 6 0 6 -6 -1 -14 -9 -11 -9 -16 0 -22
8 -5 9 -3 4 6 -5 8 -3 11 4 9 7 -3 12 -8 12 -12 -1 -4 -1 -15 -1 -24 0 -16 -2
-16 -11 -3 -9 13 -10 13 -6 0 2 -8 9 -15 16 -15 7 0 18 -8 25 -17 7 -10 16
-15 19 -12 7 7 -11 52 -30 75 -7 9 -11 18 -9 20 2 2 -7 12 -20 22 -19 14 -23
15 -18 2z m58 -81 c3 -8 2 -12 -4 -9 -6 3 -10 10 -10 16 0 14 7 11 14 -7z"/>
<path d="M6530 1349 c0 -15 18 -19 23 -6 3 8 -1 14 -9 14 -8 0 -14 -4 -14 -8z"/>
<path d="M6285 1330 c-4 -6 -3 -10 2 -9 20 4 24 -2 12 -18 -13 -15 -12 -15 9
-2 12 8 22 18 22 23 0 5 -3 6 -7 3 -3 -4 -12 -2 -19 4 -8 7 -14 7 -19 -1z"/>
<path d="M6501 1326 c-9 -11 -9 -16 0 -22 7 -4 15 -2 17 4 2 7 9 9 15 5 7 -4
6 1 -2 10 -16 21 -16 20 -30 3z"/>
<path d="M6127 1293 c-11 -11 -8 -20 7 -20 8 0 12 6 9 14 -6 15 -7 15 -16 6z"/>
<path d="M6172 1264 c10 -10 20 -15 24 -12 3 4 -5 12 -18 18 -22 12 -22 12 -6
-6z"/>
<path d="M6260 1255 c-1 -5 -2 -14 -1 -18 1 -5 -3 -6 -8 -3 -5 4 -12 2 -16 -4
-3 -5 0 -10 7 -11 7 0 21 -2 31 -4 13 -2 15 0 9 8 -5 7 -12 19 -15 27 -3 8 -6
11 -7 5z"/>
<path d="M7581 1544 c0 -11 3 -14 6 -6 3 7 2 16 -1 19 -3 4 -6 -2 -5 -13z"/>
<path d="M7579 1468 c-1 -13 -1 -27 0 -32 1 -4 -4 -15 -11 -24 -10 -12 -10
-14 0 -8 19 11 15 -44 -4 -66 -16 -17 -18 -17 -30 0 -12 15 -12 15 -7 -5 6
-27 11 -28 32 -9 14 13 16 12 17 -10 1 -14 -2 -21 -9 -17 -6 4 -7 1 -1 -8 13
-21 11 -86 -3 -86 -8 0 -9 6 -2 19 7 12 6 18 -1 18 -6 0 -15 -11 -20 -25 -5
-14 -21 -30 -35 -37 -29 -13 -31 -21 -8 -39 15 -12 16 -12 10 3 -3 10 -2 20 3
23 4 3 7 -7 5 -22 -3 -32 40 -107 57 -97 7 4 8 3 4 -4 -4 -7 -2 -20 3 -29 7
-13 10 56 11 230 0 136 -2 247 -5 247 -3 0 -6 -10 -6 -22z m1 -288 c0 -5 -2
-10 -4 -10 -3 0 -8 5 -11 10 -3 6 -1 10 4 10 6 0 11 -4 11 -10z m-3 -55 c0 -7
-10 -18 -21 -25 -17 -10 -19 -10 -8 1 15 16 16 33 0 23 -6 -4 -8 -3 -5 3 9 14
34 12 34 -2z"/>
<path d="M7505 1321 c-3 -5 0 -13 5 -16 8 -5 6 -12 -4 -24 -9 -10 -12 -22 -6
-30 4 -8 6 -21 2 -29 -4 -11 -1 -13 9 -7 8 4 11 4 6 0 -15 -17 -43 -12 -45 9
-1 17 1 18 9 6 9 -13 10 -13 6 0 -2 8 -9 16 -15 16 -7 1 -17 2 -23 3 -6 0 -9
8 -6 16 4 8 2 17 -4 20 -5 4 -9 3 -8 -2 3 -20 -2 -34 -11 -28 -14 9 -12 -1 3
-17 7 -7 20 -25 30 -40 15 -25 20 -26 42 -16 24 11 30 21 25 43 -12 55 -11 58
5 45 11 -9 13 -15 4 -20 -6 -4 -7 -10 -3 -12 5 -3 18 3 29 14 15 15 16 19 5
16 -9 -1 -15 0 -15 3 0 4 -8 16 -18 26 -9 11 -14 23 -10 26 3 4 4 7 0 7 -3 0
-8 -4 -12 -9z"/>
<path d="M7375 1296 c10 -14 19 -26 22 -26 7 0 -17 39 -28 46 -6 3 -3 -5 6
-20z"/>
<path d="M7464 1289 c-3 -6 -2 -15 3 -20 5 -5 9 -1 9 11 0 23 -2 24 -12 9z"/>
<path d="M1704 1460 c7 -8 11 -22 9 -30 -4 -13 -3 -13 6 0 7 10 6 19 -2 29
-10 12 -9 14 6 8 10 -4 16 -3 12 2 -3 6 -14 9 -25 8 -16 -1 -17 -3 -6 -17z"/>
<path d="M1477 1459 c7 -7 15 -10 18 -7 3 3 -2 9 -12 12 -14 6 -15 5 -6 -5z"/>
<path d="M1544 1440 c0 -11 7 -16 16 -15 8 2 18 4 23 4 4 1 7 6 7 12 0 8 -6 7
-17 -2 -14 -12 -16 -12 -11 2 3 9 1 16 -6 16 -6 0 -12 -8 -12 -17z"/>
<path d="M1667 1447 c-3 -8 0 -14 7 -14 7 0 13 6 13 14 0 7 -4 13 -8 13 -4 0
-9 -6 -12 -13z"/>
<path d="M1817 1453 c-11 -10 -8 -20 7 -26 10 -4 12 0 9 14 -6 21 -7 22 -16
12z"/>
<path d="M1371 1426 c-9 -10 -9 -16 -1 -21 6 -4 14 -4 17 -1 4 3 0 6 -8 6 -12
0 -12 2 1 10 8 5 12 12 9 15 -4 3 -12 -1 -18 -9z"/>
<path d="M1400 1430 c0 -5 5 -10 11 -10 5 0 7 5 4 10 -3 6 -8 10 -11 10 -2 0
-4 -4 -4 -10z"/>
<path d="M1467 1425 c14 -10 20 -21 16 -32 -5 -12 -3 -14 8 -8 11 6 12 5 2 -6
-18 -19 -16 -34 2 -19 9 7 13 21 10 31 -4 11 -2 19 5 19 6 0 8 5 4 11 -5 8 -8
8 -14 0 -5 -9 -10 -8 -20 4 -7 8 -17 15 -23 15 -6 0 -2 -7 10 -15z"/>
<path d="M1625 1420 c-4 -6 -1 -9 6 -8 8 2 14 -10 16 -32 2 -33 2 -34 -12 -16
-8 11 -15 23 -15 27 0 4 -9 7 -19 6 -12 -1 -17 -6 -14 -15 4 -10 8 -11 13 -2
5 8 10 8 14 2 7 -11 -21 -25 -35 -16 -5 3 -9 11 -9 19 0 16 -30 29 -42 17 -5
-5 -10 -18 -11 -30 0 -11 -4 -20 -7 -20 -18 2 -23 -4 -10 -12 8 -5 10 -10 4
-10 -6 0 -17 7 -24 15 -7 8 -21 15 -31 15 -11 0 -19 5 -19 11 0 5 5 7 12 3 7
-5 8 -3 3 5 -6 10 -11 10 -23 -2 -13 -14 -13 -17 2 -32 22 -22 21 -32 -1 -13
-26 23 -63 32 -63 16 0 -10 -2 -10 -9 1 -19 29 -28 -1 -24 -76 18 -370 223
-649 559 -764 49 -16 97 -28 106 -25 9 2 19 -1 21 -8 3 -8 138 -11 508 -11
560 0 542 -2 694 71 77 37 101 54 180 129 29 28 75 71 103 98 36 33 50 52 46
65 -5 14 -4 14 4 3 9 -12 17 -11 56 10 47 24 56 44 34 68 -10 11 -10 13 0 7 6
-4 12 -3 12 1 0 5 -6 15 -12 22 -10 11 -10 13 0 7 9 -6 12 15 12 89 0 53 -4
94 -9 91 -5 -3 -14 1 -21 9 -10 13 -9 15 11 16 22 0 23 1 4 8 -11 5 -21 5 -23
0 -2 -4 -11 -5 -20 -2 -12 4 -10 0 6 -14 26 -24 29 -35 5 -26 -12 5 -15 2 -11
-8 4 -11 -1 -15 -19 -15 l-24 0 21 16 c23 17 18 30 -12 30 -10 0 -18 5 -18 10
0 6 5 10 11 10 5 0 7 5 4 10 -3 6 -11 10 -16 10 -6 0 -8 -4 -5 -9 4 -5 0 -12
-6 -15 -9 -3 -8 -8 5 -16 9 -6 17 -15 17 -20 0 -17 -21 -11 -41 13 -10 12 -18
16 -19 10 0 -7 5 -13 10 -13 6 0 10 -4 10 -9 0 -5 -10 -7 -22 -5 -13 2 -18 2
-11 -2 16 -7 5 -34 -12 -28 -7 3 -13 -1 -12 -8 2 -47 -2 -51 -27 -27 -19 18
-22 27 -13 37 19 23 17 42 -5 42 -21 0 -21 0 -2 22 l19 21 -27 -17 c-15 -10
-32 -15 -37 -11 -7 4 -8 -1 -4 -12 5 -16 4 -16 -14 2 -21 20 -21 41 -1 29 7
-4 8 -2 4 4 -10 17 -23 15 -30 -4 -4 -10 1 -26 11 -37 18 -19 17 -20 -4 -8
-12 6 -25 16 -28 21 -4 6 -11 7 -17 4 -6 -4 -5 -9 3 -15 10 -6 7 -8 -8 -6 -12
0 -20 3 -18 6 3 2 0 10 -6 18 -9 10 -8 13 5 13 10 0 14 5 11 10 -5 8 -11 7
-21 -1 -11 -9 -14 -9 -14 0 0 7 -5 9 -11 6 -6 -5 -5 -11 6 -19 8 -6 14 -21 12
-33 -5 -32 -14 -37 -20 -13 -3 11 -1 20 4 20 5 0 0 9 -12 21 -11 11 -23 19
-25 16 -3 -3 1 -11 9 -19 12 -11 12 -16 0 -26 -10 -10 -13 -10 -13 3 0 8 -4
15 -10 15 -5 0 -10 -4 -10 -8 0 -4 -11 -8 -24 -8 -18 0 -22 4 -19 21 4 18 3
18 -7 2 -12 -19 -5 -57 11 -57 6 0 8 4 5 9 -3 5 0 11 7 14 7 3 13 -3 14 -13 2
-23 -32 -56 -42 -41 -3 6 -13 11 -21 11 -10 0 -14 -14 -14 -55 l0 -55 -448 0
c-353 0 -459 3 -502 14 -30 8 -59 12 -64 9 -5 -4 -6 -1 -2 5 7 12 -51 48 -69
43 -5 -1 -7 1 -3 5 11 10 -62 88 -84 89 -10 1 -21 5 -25 10 -5 4 2 4 15 1 26
-9 28 1 7 40 -8 16 -15 38 -15 49 0 11 -9 26 -20 33 -12 7 -18 18 -14 24 5 8
10 5 15 -8 5 -11 7 16 7 64 -2 53 -5 77 -11 67 -7 -12 -12 -13 -22 -5 -17 14
-35 5 -35 -18 0 -15 -2 -15 -10 -2 -7 12 -9 10 -7 -7 1 -17 4 -19 14 -11 9 7
13 7 13 0 0 -6 10 -20 22 -31 20 -19 20 -22 5 -39 -10 -10 -14 -23 -10 -28 5
-5 4 -5 -1 -1 -6 4 -16 -3 -23 -15 -7 -13 -12 -18 -13 -12 0 7 8 22 19 35 17
22 17 24 2 37 -14 11 -13 12 7 2 13 -6 22 -7 22 -1 0 5 -9 13 -20 16 -11 4
-18 10 -15 14 2 4 -9 8 -25 9 -44 1 -67 10 -67 27 0 8 4 15 9 15 4 0 8 -6 8
-13 0 -7 8 -13 18 -13 10 0 19 6 19 12 0 7 -6 10 -13 7 -6 -2 -15 0 -19 6 -3
6 -1 11 5 11 6 0 8 5 4 11 -5 8 -9 8 -14 -1 -4 -7 -12 -10 -18 -6 -5 3 -9 -6
-7 -22 1 -15 -4 -33 -11 -40 -9 -8 -14 -9 -14 -2 0 6 -5 8 -11 5 -6 -4 -8 -14
-4 -24 4 -11 3 -13 -5 -5 -14 14 -2 44 19 45 11 0 9 3 -6 9 -13 5 -23 12 -23
14 0 3 6 3 14 0 13 -5 31 24 21 34 -3 3 -5 0 -5 -7 0 -10 -6 -9 -24 3 -16 10
-27 12 -31 6z m-69 -32 c4 -7 3 -8 -4 -4 -7 4 -12 2 -12 -5 0 -7 -3 -10 -6 -6
-6 5 3 27 11 27 2 0 7 -5 11 -12z m276 -8 c-2 -10 0 -11 10 -2 11 9 14 5 16
-19 2 -19 -1 -28 -8 -24 -6 3 -7 12 -4 18 4 7 4 9 -1 5 -11 -10 -35 10 -35 29
0 8 6 13 13 10 6 -2 11 -10 9 -17z m-265 -28 c0 -10 -10 -26 -20 -37 -19 -20
-19 -20 -4 11 9 17 13 34 10 38 -4 3 -1 6 5 6 6 0 10 -8 9 -18z m-97 -6 c0 -3
-4 -8 -10 -11 -5 -3 -10 -1 -10 4 0 6 5 11 10 11 6 0 10 -2 10 -4z m125 -6 c3
-5 1 -10 -4 -10 -6 0 -11 5 -11 10 0 6 2 10 4 10 3 0 8 -4 11 -10z m141 -7
c-10 -11 -36 -12 -36 -2 0 5 10 9 22 9 12 0 18 -3 14 -7z m34 -18 c0 -8 8 -19
18 -24 9 -6 12 -11 5 -11 -6 0 -15 5 -18 11 -4 6 -13 8 -21 5 -7 -3 -16 -1
-19 5 -4 5 -1 8 7 7 8 -2 12 4 10 16 -2 11 1 15 7 11 6 -3 11 -12 11 -20z
m-420 5 c0 -5 -5 -10 -11 -10 -5 0 -7 5 -4 10 3 6 8 10 11 10 2 0 4 -4 4 -10z
m277 -6 c-3 -3 -12 -4 -19 -1 -8 3 -5 6 6 6 11 1 17 -2 13 -5z m-6 -31 c12
-16 12 -17 -2 -6 -9 7 -18 10 -21 7 -3 -3 -9 -1 -13 5 -11 18 22 12 36 -6z
m33 5 c-5 -8 -1 -9 12 -4 14 5 16 4 7 -5 -13 -13 -37 -3 -28 12 4 5 8 9 11 9
3 0 2 -5 -2 -12z m54 -33 c-3 -3 -9 2 -12 12 -6 14 -5 15 5 6 7 -7 10 -15 7
-18z m-53 -15 c-3 -5 -12 -10 -18 -10 -7 0 -6 4 3 10 19 12 23 12 15 0z m1745
-120 c9 -6 10 -10 3 -10 -6 0 -15 -9 -18 -21 -5 -16 -10 -18 -21 -8 -10 8 -14
8 -14 1 0 -7 -7 -9 -17 -5 -14 5 -14 8 -2 11 7 3 17 10 21 16 5 7 8 7 8 -2 0
-7 4 -11 10 -7 5 3 7 12 3 20 -6 17 5 19 27 5z m-193 -22 c-3 -8 -6 -5 -6 6
-1 11 2 17 5 13 3 -3 4 -12 1 -19z m-22 -6 c-3 -3 -11 0 -18 7 -9 10 -8 11 6
5 10 -3 15 -9 12 -12z m121 -7 c1 -9 -7 -20 -19 -26 -19 -9 -20 -8 -6 3 9 7
15 21 13 31 -1 11 0 16 4 13 3 -4 7 -13 8 -21z m-31 5 c3 -6 -1 -7 -9 -4 -18
7 -21 14 -7 14 6 0 13 -4 16 -10z m261 -8 c1 -7 0 -8 -3 -2 -8 17 -26 11 -19
-6 5 -14 4 -15 -9 -4 -8 7 -12 17 -9 22 8 13 37 6 40 -10z m104 6 c0 -6 -3 -8
-7 -5 -3 4 -13 1 -22 -6 -14 -11 -14 -10 -2 6 15 20 31 22 31 5z m-426 -17
c19 -7 19 -8 -2 -13 -12 -4 -20 -2 -16 3 3 5 -2 9 -10 9 -8 0 -18 -4 -21 -10
-3 -5 -12 -10 -18 -10 -7 0 -3 7 7 15 22 16 31 17 60 6z m426 -11 c0 -5 -2
-10 -4 -10 -3 0 -8 5 -11 10 -3 6 -1 10 4 10 6 0 11 -4 11 -10z m-248 -32 c-6
-6 -12 -6 -17 3 -5 8 -4 10 3 5 7 -4 12 0 13 11 0 12 2 13 6 5 3 -8 1 -18 -5
-24z m145 17 c0 -8 -4 -12 -8 -9 -4 2 -9 0 -11 -5 -1 -5 -10 -2 -18 7 -13 14
-12 15 3 9 9 -3 19 -2 22 3 9 14 12 12 12 -5z m-359 -10 c-7 -8 -48 -15 -48
-9 0 6 44 23 49 18 2 -2 2 -6 -1 -9z m76 7 c2 -4 -4 -8 -14 -9 -11 -1 -22 2
-25 8 -4 5 3 9 14 9 11 0 22 -4 25 -8z m346 -2 c0 -5 -5 -10 -11 -10 -5 0 -7
5 -4 10 3 6 8 10 11 10 2 0 4 -4 4 -10z m-490 -30 c0 -5 -2 -10 -4 -10 -3 0
-8 5 -11 10 -3 6 -1 10 4 10 6 0 11 -4 11 -10z m330 7 c0 -2 -10 -12 -22 -23
l-23 -19 19 23 c18 21 26 27 26 19z m133 -13 c-5 -15 -3 -15 20 1 16 10 27 13
27 6 0 -6 -6 -11 -14 -11 -8 0 -16 -6 -19 -12 -3 -10 -7 -10 -17 -1 -7 6 -9
16 -6 22 11 17 16 13 9 -5z m-413 -4 c0 -5 -7 -7 -15 -4 -8 4 -15 8 -15 10 0
2 7 4 15 4 8 0 15 -4 15 -10z m385 0 c3 -5 1 -10 -4 -10 -6 0 -11 5 -11 10 0
6 2 10 4 10 3 0 8 -4 11 -10z m-50 -18 c-3 -3 -11 0 -18 7 -9 10 -8 11 6 5 10
-3 15 -9 12 -12z m-121 -8 c3 -8 2 -12 -4 -9 -6 3 -10 10 -10 16 0 14 7 11 14
-7z m-40 -2 c-5 -4 -12 -11 -15 -15 -3 -5 -9 -2 -12 5 -3 9 3 14 15 15 11 1
16 -1 12 -5z m214 -57 c-3 -3 -9 2 -12 12 -6 14 -5 15 5 6 7 -7 10 -15 7 -18z
m-148 -39 c0 -2 -8 -10 -17 -17 -16 -13 -17 -12 -4 4 13 16 21 21 21 13z m51
-119 c-10 -9 -11 -8 -5 6 3 10 9 15 12 12 3 -3 0 -11 -7 -18z"/>
<path d="M1335 1412 c-16 -12 -13 -38 4 -38 9 0 27 -4 41 -8 19 -6 22 -5 14 4
-6 6 -20 13 -30 14 -11 2 -18 11 -18 20 2 18 2 18 -11 8z"/>
<path d="M1425 1410 c-4 -6 -10 -8 -14 -6 -4 3 -8 -1 -8 -9 0 -13 4 -12 19 2
18 16 22 23 14 23 -3 0 -8 -5 -11 -10z"/>
<path d="M1450 1396 c0 -2 7 -9 15 -16 13 -11 14 -10 9 4 -5 14 -24 23 -24 12z"/>
<path d="M3604 1259 c-4 -7 -3 -9 4 -5 5 3 13 0 15 -6 4 -9 6 -10 6 -1 1 17
-16 25 -25 12z"/>
<path d="M3520 1251 c0 -6 4 -11 9 -11 5 0 11 -9 14 -20 5 -21 27 -28 27 -9 0
5 -4 7 -10 4 -5 -3 -10 0 -10 8 0 8 -7 20 -15 27 -10 9 -15 9 -15 1z"/>
<path d="M3140 1240 c-9 -6 -10 -10 -3 -10 6 0 15 5 18 10 8 12 4 12 -15 0z"/>
<path d="M3178 1243 c9 -3 6 -13 -9 -34 -12 -18 -27 -28 -35 -25 -8 3 -14 1
-14 -4 0 -21 30 -9 54 22 25 32 26 49 3 47 -9 0 -8 -2 1 -6z"/>
<path d="M3445 1230 c5 -8 17 -21 26 -28 15 -10 16 -17 7 -42 -11 -33 -18 -36
-37 -17 -10 10 -11 7 -7 -15 3 -16 -1 -32 -10 -39 -12 -10 -12 -14 -2 -20 20
-13 31 -10 24 6 -3 9 1 18 9 21 8 4 13 10 10 14 -2 4 6 19 20 34 13 14 19 26
13 26 -7 0 -2 9 10 20 27 26 27 25 0 27 -13 0 -17 -1 -10 -4 6 -3 9 -9 6 -15
-4 -5 -19 3 -37 19 -16 15 -26 21 -22 13z"/>
<path d="M3257 1209 c7 -7 15 -10 18 -7 3 3 -2 9 -12 12 -14 6 -15 5 -6 -5z"/>
<path d="M3391 1211 c-7 -5 -11 -13 -7 -19 3 -6 2 -13 -4 -17 -5 -3 -10 -1
-10 4 0 6 -4 11 -10 11 -5 0 -7 -7 -4 -15 11 -26 42 -11 49 23 4 25 5 25 -14
13z"/>
<path d="M3315 1199 c-3 -4 2 -6 10 -5 21 3 28 13 10 13 -9 0 -18 -4 -20 -8z"/>
<path d="M3440 1190 c-9 -6 -10 -10 -3 -10 6 0 15 5 18 10 8 12 4 12 -15 0z"/>
<path d="M3071 1183 c-1 -6 4 -15 10 -19 8 -4 8 -9 0 -17 -6 -6 -11 -24 -11
-39 0 -21 5 -28 20 -28 11 0 20 -5 20 -12 0 -6 3 -9 6 -5 3 3 0 15 -8 26 -8
12 -18 18 -21 14 -4 -3 -7 1 -7 10 0 9 5 19 11 22 6 4 8 13 5 20 -3 8 -2 16 2
18 4 2 2 2 -5 1 -6 -2 -14 2 -17 9 -3 9 -5 9 -5 0z"/>
<path d="M3135 1150 c-3 -6 1 -7 9 -4 18 7 21 14 7 14 -6 0 -13 -4 -16 -10z"/>
<path d="M4740 1386 c0 -2 7 -7 16 -10 8 -3 12 -2 9 4 -6 10 -25 14 -25 6z"/>
<path d="M4640 1323 c8 -3 19 -11 23 -17 6 -7 7 -6 4 4 -2 8 -12 16 -23 17
-13 2 -15 1 -4 -4z"/>
<path d="M4395 1310 c-3 -6 1 -7 9 -4 18 7 21 14 7 14 -6 0 -13 -4 -16 -10z"/>
<path d="M4475 1311 c-3 -5 -2 -12 3 -15 5 -3 9 1 9 9 0 17 -3 19 -12 6z"/>
<path d="M4610 1290 c-9 -6 -10 -10 -3 -10 6 0 15 5 18 10 8 12 4 12 -15 0z"/>
<path d="M4640 1291 c0 -6 6 -11 13 -11 8 0 7 -4 -3 -11 -13 -9 -12 -10 3 -5
11 3 17 0 17 -10 0 -9 -5 -12 -12 -8 -7 4 -8 3 -4 -4 10 -17 26 -15 26 4 0 9
5 13 13 9 6 -4 4 0 -5 8 -10 8 -14 18 -10 23 4 5 3 6 -2 2 -5 -4 -15 -3 -23 3
-9 9 -13 8 -13 0z"/>
<path d="M4723 1285 c0 -8 4 -12 9 -9 5 3 6 10 3 15 -9 13 -12 11 -12 -6z"/>
<path d="M4755 1289 c-4 -6 -5 -12 -2 -15 2 -3 7 2 10 11 7 17 1 20 -8 4z"/>
<path d="M4207 1277 c-7 -18 11 -37 29 -30 16 6 19 43 4 43 -5 0 -7 -6 -4 -14
3 -8 0 -17 -7 -22 -7 -4 -10 -3 -6 2 3 6 2 16 -2 23 -7 10 -9 10 -14 -2z"/>
<path d="M4275 1280 c3 -5 8 -10 11 -10 2 0 4 5 4 10 0 6 -5 10 -11 10 -5 0
-7 -4 -4 -10z"/>
<path d="M4305 1280 c-3 -6 1 -7 9 -4 18 7 21 14 7 14 -6 0 -13 -4 -16 -10z"/>
<path d="M4340 1278 c0 -9 7 -19 16 -22 15 -6 15 -4 3 11 -7 10 -15 20 -16 22
-2 2 -3 -3 -3 -11z"/>
<path d="M4370 1281 c0 -4 11 -7 25 -7 14 0 25 3 25 7 0 3 -11 7 -25 7 -14 0
-25 -4 -25 -7z"/>
<path d="M4546 1263 c4 -23 3 -25 -11 -13 -8 7 -15 8 -15 2 0 -24 25 -29 45
-9 11 11 14 17 8 13 -9 -5 -13 0 -13 13 0 12 -4 21 -9 21 -5 0 -8 -12 -5 -27z"/>
<path d="M4315 1243 c-3 -9 -3 -18 0 -21 3 -3 5 -1 5 5 0 6 11 8 24 6 18 -4
23 -10 20 -26 -2 -12 -2 -16 2 -9 3 6 9 10 12 8 4 -2 8 10 9 27 1 20 -1 26 -5
15 -6 -16 -10 -16 -34 -4 -23 12 -27 12 -33 -1z"/>
<path d="M4715 1242 c4 -10 0 -12 -10 -8 -9 3 -13 2 -10 -4 3 -6 0 -10 -7 -10
-8 0 -9 -3 -3 -8 6 -4 21 -20 33 -36 12 -16 22 -23 22 -15 0 7 -8 22 -18 33
-18 20 -18 22 -1 38 18 17 19 16 30 -3 6 -12 7 -19 1 -15 -11 6 -24 -18 -15
-28 7 -7 33 19 33 34 0 17 -23 37 -43 37 -11 0 -16 -6 -12 -15z"/>
<path d="M4420 1234 c0 -8 5 -12 10 -9 6 4 8 11 5 16 -9 14 -15 11 -15 -7z"/>
<path d="M4750 1171 c0 -6 5 -13 10 -16 6 -3 10 1 10 9 0 9 -4 16 -10 16 -5 0
-10 -4 -10 -9z"/>
<path d="M4726 1091 c-15 -16 -15 -19 -1 -31 8 -7 15 -11 16 -9 2 9 6 59 4 59
-1 0 -9 -8 -19 -19z"/>
<path d="M4173 1005 c0 -27 2 -38 4 -22 2 15 2 37 0 50 -2 12 -4 0 -4 -28z"/>
<path d="M4171 904 c0 -11 3 -14 6 -6 3 7 2 16 -1 19 -3 4 -6 -2 -5 -13z"/>
<path d="M4172 860 c0 -14 2 -19 5 -12 2 6 2 18 0 25 -3 6 -5 1 -5 -13z"/>
<path d="M7843 1565 c0 -22 2 -30 4 -17 2 12 2 30 0 40 -3 9 -5 -1 -4 -23z"/>
<path d="M7842 993 c-1 -282 -1 -513 0 -514 2 -1 121 -3 266 -5 l262 -4 0 432
c-1 323 -4 436 -13 447 -9 12 -9 13 1 7 6 -4 12 -4 12 0 0 9 -32 33 -45 34 -5
0 -3 -4 4 -9 12 -8 11 -13 -10 -30 -13 -11 -19 -20 -13 -21 5 0 15 5 20 10 8
8 15 6 24 -5 11 -13 10 -15 -3 -9 -8 3 -25 0 -37 -6 -17 -9 -24 -8 -39 11 -10
12 -17 34 -15 48 2 22 1 23 -9 11 -13 -16 -36 -18 -75 -6 -21 7 -22 6 -10 -13
8 -14 15 -16 19 -9 6 9 11 8 23 -1 8 -7 20 -10 26 -6 5 3 10 2 10 -3 0 -14
-28 -23 -35 -11 -7 11 -37 8 -46 -5 -4 -4 -15 -3 -25 4 -16 9 -16 11 -2 6 10
-3 20 -1 23 3 6 11 -23 36 -32 27 -3 -3 0 -6 8 -6 8 0 4 -6 -9 -16 -12 -8 -22
-21 -22 -27 0 -8 3 -8 9 2 5 8 11 9 15 3 3 -5 -1 -12 -9 -16 -8 -3 -19 3 -24
12 -6 9 -11 12 -11 5 0 -7 -7 -10 -15 -7 -8 4 -12 10 -9 16 3 5 8 7 11 4 9 -8
43 13 42 27 0 9 -2 9 -6 0 -5 -14 -35 -17 -47 -6 -3 4 -17 8 -29 10 -15 2 -18
0 -9 -6 8 -4 15 -20 15 -33 2 -18 7 -24 17 -21 11 3 10 1 -2 -10 -10 -8 -14
-18 -10 -22 4 -5 1 -5 -6 -1 -7 4 -10 11 -7 16 3 5 1 11 -4 14 -22 14 -23 -18
-1 -36 12 -10 18 -18 12 -18 -5 0 -15 7 -22 15 -7 8 -17 12 -23 8 -6 -3 -7 -1
-3 6 10 15 -13 43 -27 34 -6 -4 -1 8 12 26 13 18 20 35 17 38 -3 4 -6 2 -6 -4
0 -7 -10 -9 -22 -5 -20 5 -21 3 -10 -10 10 -13 9 -15 -14 -10 -20 4 -25 2 -19
-8 4 -7 2 -16 -6 -21 -19 -12 -32 -11 -24 1 3 6 1 10 -4 10 -6 0 -11 -6 -11
-14 0 -8 -4 -17 -9 -20 -4 -3 -7 5 -6 17 1 12 3 22 4 22 2 0 4 8 6 18 2 9 -1
15 -6 11 -5 -3 -9 7 -9 21 0 18 4 24 13 19 9 -6 9 -5 0 7 -6 8 -13 30 -15 49
-3 19 -5 -196 -6 -477z m213 367 c3 -5 1 -10 -4 -10 -6 0 -11 5 -11 10 0 6 2
10 4 10 3 0 8 -4 11 -10z m-118 -29 c0 -11 -5 -17 -11 -14 -5 4 -7 0 -4 -8 4
-10 -3 -14 -20 -16 -15 0 -28 -6 -30 -12 -5 -14 -22 -15 -22 -1 0 5 10 12 23
15 12 3 31 17 42 30 24 29 24 29 22 6z m241 -23 c-7 -13 -11 -32 -11 -43 1
-16 1 -16 -3 -2 -3 9 -11 17 -17 17 -7 0 -4 5 6 11 9 5 17 17 17 24 0 8 5 15
10 15 7 0 6 -8 -2 -22z m89 7 c5 -4 2 -5 -4 -1 -8 4 -13 2 -13 -5 0 -8 -4 -8
-15 1 -11 9 -15 9 -15 1 0 -7 -5 -9 -11 -5 -8 5 -8 8 0 14 15 9 48 6 58 -5z
m-117 -5 c-8 -5 -19 -10 -25 -10 -5 0 -3 5 5 10 8 5 20 10 25 10 6 0 3 -5 -5
-10z m-183 -29 c-1 -16 -6 -27 -10 -24 -4 2 -5 14 -1 25 4 15 3 18 -6 13 -9
-5 -11 -4 -6 3 13 22 25 12 23 -17z m163 3 c0 -8 -19 -13 -24 -6 -3 5 1 9 9 9
8 0 15 -2 15 -3z m85 -3 c3 -5 0 -13 -6 -17 -7 -4 -9 -3 -5 4 3 6 -2 13 -11
15 -16 4 -16 5 -1 6 9 0 19 -3 23 -8z m66 -14 c-6 -8 -8 -16 -5 -20 3 -3 -1
-4 -10 -3 -9 1 -22 8 -29 16 -10 12 -9 12 4 2 13 -10 19 -9 29 3 7 8 15 15 17
15 3 0 0 -6 -6 -13z m-86 -16 c3 -5 2 -12 -3 -15 -5 -3 -9 1 -9 9 0 17 3 19
12 6z m-85 -5 c0 -2 -7 -7 -16 -10 -8 -3 -12 -2 -9 4 6 10 25 14 25 6z m-225
-24 c-3 -3 -11 0 -18 7 -9 10 -8 11 6 5 10 -3 15 -9 12 -12z m260 -2 c3 -6 -1
-7 -9 -4 -18 7 -21 14 -7 14 6 0 13 -4 16 -10z m-44 -57 c13 -16 12 -17 -3 -4
-10 7 -18 15 -18 17 0 8 8 3 21 -13z"/>
<path d="M8259 1483 c-13 -16 -12 -17 4 -4 16 13 21 21 13 21 -2 0 -10 -8 -17
-17z"/>
<path d="M8119 1473 c-13 -16 -12 -17 4 -4 16 13 21 21 13 21 -2 0 -10 -8 -17
-17z"/>
<path d="M8336 1461 c-3 -5 1 -14 9 -21 10 -9 15 -9 15 -1 0 6 -5 11 -11 11
-5 0 -7 5 -4 10 3 6 4 10 1 10 -3 0 -7 -4 -10 -9z"/>
<path d="M8125 1440 c-3 -5 -2 -10 4 -10 5 0 13 5 16 10 3 6 2 10 -4 10 -5 0
-13 -4 -16 -10z"/>
<path d="M8250 1445 c0 -7 30 -13 34 -7 3 4 -4 9 -15 9 -10 1 -19 0 -19 -2z"/>
<path d="M8307 1429 c7 -7 15 -10 18 -7 3 3 -2 9 -12 12 -14 6 -15 5 -6 -5z"/>
<path d="M7986 1415 c-3 -8 -1 -15 4 -15 6 0 10 7 10 15 0 8 -2 15 -4 15 -2 0
-6 -7 -10 -15z"/>
<path d="M8156 1422 c-3 -5 1 -9 9 -9 8 0 12 4 9 9 -3 4 -7 8 -9 8 -2 0 -6 -4
-9 -8z"/>
<path d="M8239 1413 c-13 -16 -12 -17 4 -4 16 13 21 21 13 21 -2 0 -10 -8 -17
-17z"/>
<path d="M7890 1410 c-9 -6 -10 -10 -3 -10 6 0 15 5 18 10 8 12 4 12 -15 0z"/>
<path d="M7946 1407 c3 -10 9 -15 12 -12 3 3 0 11 -7 18 -10 9 -11 8 -5 -6z"/>
<path d="M8186 1404 c-5 -13 -4 -14 7 -6 8 7 18 8 22 4 5 -4 5 -1 1 6 -10 17
-23 15 -30 -4z"/>
<path d="M8347 1409 c7 -7 15 -10 18 -7 3 3 -2 9 -12 12 -14 6 -15 5 -6 -5z"/>
<path d="M7922 1405 c4 -4 3 -14 -3 -22 -7 -8 -8 -13 -1 -13 15 0 23 28 9 36
-7 4 -9 4 -5 -1z"/>
<path d="M8280 1395 c-7 -8 -9 -15 -5 -15 4 0 2 -6 -4 -13 -8 -11 -6 -18 8
-31 17 -16 18 -15 14 25 -3 27 -1 39 6 34 6 -3 11 -1 11 4 0 16 -16 13 -30 -4z"/>
<path d="M8018 1393 c7 -3 16 -2 19 1 4 3 -2 6 -13 5 -11 0 -14 -3 -6 -6z"/>
<path d="M7880 1371 c0 -6 4 -12 8 -15 5 -3 9 1 9 9 0 8 -4 15 -9 15 -4 0 -8
-4 -8 -9z"/>
<path d="M8006 1345 c-3 -9 -12 -12 -23 -8 -16 6 -16 5 -5 -10 11 -13 18 -14
32 -5 10 6 16 18 13 25 -7 17 -10 16 -17 -2z"/>
<path d="M119 2647 c-19 -12 -39 -39 -48 -60 -12 -34 -12 -41 4 -77 43 -95
161 -108 216 -24 23 36 24 75 3 120 -31 64 -112 83 -175 41z m131 -45 c26 -33
25 -75 -2 -106 -35 -39 -69 -42 -106 -11 -51 43 -41 114 20 140 39 16 63 10
88 -23z"/>
<path d="M9749 2647 c-39 -26 -64 -84 -55 -123 4 -15 22 -42 41 -61 26 -26 41
-33 72 -33 69 0 122 50 123 115 0 100 -100 157 -181 102z m112 -30 c19 -15 39
-50 39 -71 0 -8 -12 -28 -26 -45 -44 -53 -125 -36 -139 28 -11 52 27 100 80
100 17 0 37 -5 46 -12z"/>
<path d="M440 1120 c-47 -47 -4 -135 64 -133 45 1 65 24 66 74 0 68 -83 106
-130 59z m84 -52 c16 -26 -16 -57 -38 -38 -17 13 -21 42 -9 54 11 11 35 3 47
-16z"/>
<path d="M9441 1114 c-41 -52 -17 -118 46 -130 26 -5 37 -1 57 19 50 50 19
137 -49 137 -24 0 -39 -7 -54 -26z m87 -45 c2 -18 -3 -29 -14 -33 -27 -11 -54
3 -54 28 0 30 9 38 40 34 19 -2 26 -10 28 -29z"/>
<path d="M5000 68 c0 -19 2 -20 10 -8 13 19 13 30 0 30 -5 0 -10 -10 -10 -22z"/>
<path d="M4997 4283 c-11 -10 -8 -51 4 -58 18 -12 59 4 59 23 0 32 -43 56 -63
35z m43 -34 c0 -5 -7 -9 -15 -9 -15 0 -20 12 -9 23 8 8 24 -1 24 -14z"/>
<path d="M0 2995 c0 -14 12 -16 80 -13 45 2 80 7 80 13 0 6 -35 11 -80 13 -68
3 -80 1 -80 -13z"/>
<path d="M73 2192 l-73 -3 0 -50 0 -50 161 5 c88 3 166 9 172 13 6 4 30 6 53
4 41 -2 42 -2 46 36 3 21 4 39 3 41 -4 5 -276 8 -362 4z"/>
<path d="M450 2150 c1 -37 2 -42 11 -26 9 15 13 16 20 5 6 -10 9 -11 9 -1 0 6
4 12 10 12 5 0 8 -6 6 -12 -1 -7 -1 -10 1 -5 3 4 14 7 25 7 15 0 18 4 12 13
-5 7 -2 5 7 -5 15 -16 18 -16 23 -2 3 8 10 13 15 10 5 -3 14 1 21 9 7 8 16 12
21 9 5 -3 9 -1 9 5 0 6 7 8 15 5 8 -4 15 -1 15 5 0 11 -6 12 -142 14 l-78 2 0
-45z"/>
<path d="M713 2193 c-20 -3 -33 -10 -33 -19 0 -12 -26 -19 -52 -15 -5 0 -8 -6
-8 -15 0 -13 3 -14 13 -5 8 6 17 8 20 4 4 -3 16 2 28 13 20 18 21 18 36 -1 15
-19 15 -19 8 4 -6 19 -4 23 7 18 9 -3 15 1 15 9 0 8 -1 13 -1 12 -1 0 -16 -3
-33 -5z"/>
<path d="M9710 2190 c-151 -3 -245 -6 -208 -8 59 -2 67 -4 62 -19 -5 -15 -3
-15 10 1 9 11 16 14 16 8 0 -7 7 -12 15 -12 8 0 15 -4 15 -9 0 -5 -8 -7 -18
-4 -13 3 -19 -1 -19 -12 0 -11 6 -15 19 -12 10 3 20 1 23 -3 3 -5 -7 -11 -22
-13 -16 -2 108 -5 273 -6 166 0 316 -4 333 -7 l31 -6 0 50 c0 38 -4 51 -17 56
-9 4 -67 6 -127 4 -61 -2 -235 -5 -386 -8z"/>
<path d="M587 2129 c7 -7 15 -10 18 -7 3 3 -2 9 -12 12 -14 6 -15 5 -6 -5z"/>
<path d="M0 2063 c0 -10 41 -13 193 -12 217 2 183 15 -55 21 -108 3 -138 1
-138 -9z"/>
<path d="M9635 2070 c-4 -7 79 -10 241 -10 136 0 245 -2 243 -4 -8 -7 -173
-15 -316 -16 -89 0 -143 -4 -143 -10 0 -6 49 -10 126 -10 69 0 155 -4 192 -9
37 -6 111 -12 165 -14 l97 -4 -2 43 -1 44 -298 0 c-188 0 -300 -4 -304 -10z"/>
<path d="M0 2021 c0 -19 5 -20 118 -15 155 7 165 9 169 21 3 8 -42 12 -141 12
-140 2 -146 1 -146 -18z"/>
<path d="M10110 1963 c-83 -3 -127 -8 -132 -16 -6 -9 -10 -9 -17 2 -6 9 -11
10 -15 2 -5 -7 -44 -11 -102 -11 -72 0 -95 -3 -91 -12 2 -7 10 -12 16 -10 6 1
11 -2 11 -6 0 -5 -14 -9 -30 -9 -17 0 -36 -5 -42 -11 -9 -9 53 -12 260 -12
l272 0 0 45 c0 25 -1 44 -2 43 -2 -1 -59 -4 -128 -5z"/>
<path d="M0 1921 l0 -41 218 2 c119 1 199 3 177 5 -51 5 -90 23 -73 35 8 5 2
8 -17 8 -17 0 -35 4 -40 9 -6 5 -67 13 -137 17 l-128 7 0 -42z"/>
<path d="M9860 1860 c-308 -5 -385 -15 -145 -19 71 -1 132 -4 134 -7 2 -2 -30
-4 -72 -4 -51 0 -77 -4 -80 -12 -3 -10 -7 -10 -19 0 -13 10 -17 10 -21 0 -4
-10 -7 -11 -18 0 -16 14 -33 16 -24 2 3 -5 0 -10 -7 -10 -7 0 -4 -6 7 -14 29
-19 109 -28 125 -13 10 9 11 9 6 0 -4 -7 0 -11 11 -11 10 1 123 -3 251 -7
l232 -8 0 57 0 56 -37 -2 c-21 -2 -175 -5 -343 -8z m309 -34 c-10 -8 -119 -15
-119 -7 0 4 28 9 62 10 34 1 60 0 57 -3z m58 -2 c-3 -3 -12 -4 -19 -1 -8 3 -5
6 6 6 11 1 17 -2 13 -5z"/>
<path d="M0 1808 l0 -51 142 7 c95 4 145 11 150 19 6 9 8 8 8 -3 0 -10 3 -11
8 -4 4 7 28 11 54 9 53 -2 82 9 59 24 -11 7 -11 9 0 14 15 6 3 8 -71 12 -67 4
-63 8 15 15 46 4 -5 7 -147 8 l-218 2 0 -52z m180 36 c0 -8 -19 -13 -24 -6 -3
5 1 9 9 9 8 0 15 -2 15 -3z m80 -4 c0 -5 -13 -10 -29 -10 -17 0 -33 5 -36 10
-4 6 8 10 29 10 20 0 36 -4 36 -10z"/>
<path d="M458 1823 c7 -3 16 -2 19 1 4 3 -2 6 -13 5 -11 0 -14 -3 -6 -6z"/>
<path d="M578 1823 c6 -2 18 -2 25 0 6 3 1 5 -13 5 -14 0 -19 -2 -12 -5z"/>
<path d="M450 1800 c0 -5 18 -9 40 -8 22 1 40 5 40 10 0 4 -18 8 -40 8 -22 0
-40 -4 -40 -10z"/>
<path d="M540 1800 c0 -5 5 -10 10 -10 6 0 10 5 10 10 0 6 -4 10 -10 10 -5 0
-10 -4 -10 -10z"/>
<path d="M570 1800 c0 -5 7 -10 16 -10 8 0 12 5 9 10 -3 6 -10 10 -16 10 -5 0
-9 -4 -9 -10z"/>
<path d="M503 1763 l-53 -4 0 -72 0 -72 147 2 148 2 3 75 3 76 -98 -2 c-54 -1
-122 -3 -150 -5z"/>
<path d="M8988 1699 c-2 -39 -1 -73 1 -75 2 -2 91 -4 198 -4 l193 0 0 66 c0
62 -1 65 -22 64 -41 -4 -69 0 -64 8 2 4 -7 8 -22 9 -23 1 -24 1 -7 -6 16 -7
13 -9 -17 -13 -38 -4 -53 7 -20 15 10 3 6 5 -11 6 -16 0 -26 -3 -22 -8 3 -5 1
-12 -5 -16 -5 -3 -10 1 -10 9 0 9 -5 16 -11 16 -5 0 -7 -4 -4 -10 3 -5 2 -10
-4 -10 -5 0 -12 6 -14 13 -4 10 -6 10 -6 0 -1 -7 -6 -13 -12 -13 -5 0 -7 5 -4
10 3 6 -1 10 -10 10 -10 0 -13 -5 -9 -12 5 -7 3 -8 -7 -2 -22 13 -43 14 -51 1
-6 -9 -8 -9 -8 1 0 6 -11 12 -24 12 -23 0 -25 -3 -28 -71z"/>
<path d="M295 1749 c-38 -4 -121 -7 -182 -8 l-113 -1 0 -63 0 -62 217 3 218 2
1 70 0 71 -35 -3 c-20 -2 -67 -6 -106 -9z"/>
<path d="M9396 1744 c-3 -9 -6 -40 -6 -70 l0 -54 425 0 425 0 0 60 0 60 -177
1 c-98 1 -191 3 -208 4 -122 10 -383 13 -392 4 -6 -6 -19 -6 -36 0 -20 8 -27
7 -31 -5z"/>
<path d="M9391 1488 l-1 -108 71 0 c38 0 68 3 66 8 -2 4 12 20 32 37 30 24 32
25 15 5 -44 -52 -55 -50 246 -49 l280 0 -26 35 c-15 19 -35 39 -46 45 -10 5
-18 16 -18 23 0 8 -13 19 -29 26 -18 7 -34 24 -40 41 -5 16 -16 31 -23 34 -7
2 -129 6 -270 7 l-257 3 0 -107z m79 8 c16 -25 30 -48 30 -52 0 -4 -15 14 -33
39 -19 26 -37 44 -42 40 -4 -5 -5 -2 -1 5 10 18 12 16 46 -32z m315 34 c3 -5
1 -10 -4 -10 -6 0 -11 5 -11 10 0 6 2 10 4 10 3 0 8 -4 11 -10z m-107 -7 c-10
-2 -26 -2 -35 0 -10 3 -2 5 17 5 19 0 27 -2 18 -5z m160 -88 c-3 -3 -9 2 -12
12 -6 14 -5 15 5 6 7 -7 10 -15 7 -18z"/>
<path d="M10110 1593 l-75 -4 1 -49 c0 -41 7 -57 43 -104 l43 -56 58 0 59 0 0
110 1 110 -28 -2 c-15 -1 -61 -4 -102 -5z"/>
<path d="M0 1485 l0 -105 218 2 217 3 2 103 2 102 -219 0 -220 0 0 -105z m330
35 c0 -5 -2 -10 -4 -10 -3 0 -8 5 -11 10 -3 6 -1 10 4 10 6 0 11 -4 11 -10z"/>
<path d="M0 832 c0 -9 36 -44 58 -56 27 -16 10 13 -23 38 -19 15 -35 23 -35
18z"/>
<path d="M0 780 c0 -5 5 -10 11 -10 5 0 7 5 4 10 -3 6 -8 10 -11 10 -2 0 -4
-4 -4 -10z"/>
<path d="M9910 325 c-179 -175 -327 -321 -329 -322 -2 -2 145 -3 327 -3 l332
0 0 181 c0 141 -3 179 -12 173 -10 -6 -10 -4 0 8 9 11 12 52 10 149 l-3 134
-325 -320z"/>
</g>
</svg>
